<svg width="257" height="49" viewBox="0 0 257 49" fill="none" xmlns="http://www.w3.org/2000/svg">
<path d="M17.8648 4.08333C17.4586 4.08333 17.0692 4.24465 16.782 4.53182C16.4948 4.81898 16.3335 5.20846 16.3335 5.61458V10.2083H11.7398C11.3336 10.2083 10.9442 10.3697 10.657 10.6568C10.3698 10.944 10.2085 11.3335 10.2085 11.7396V21.4661L7.22767 22.5584C7.02863 22.6311 6.84686 22.7443 6.69384 22.8909C6.54083 23.0375 6.41991 23.2143 6.33873 23.41C6.25755 23.6058 6.21789 23.8162 6.22225 24.0281C6.22661 24.24 6.27489 24.4486 6.36405 24.6409L11.1313 34.888C11.8286 34.6579 12.5799 34.6483 13.2828 34.8605C13.9857 35.0728 14.6061 35.4966 15.0595 36.0742L9.84509 24.8614L23.2935 19.9369C24.0774 19.6498 24.9369 19.6461 25.7231 19.9267L39.5554 24.8634L34.2022 35.7761C34.6889 35.2809 35.3096 34.9383 35.988 34.7904C36.6665 34.6424 37.3734 34.6955 38.0221 34.9431L43.061 24.6715C43.1561 24.4778 43.2092 24.2663 43.2169 24.0507C43.2245 23.8351 43.1865 23.6203 43.1054 23.4204C43.0242 23.2205 42.9017 23.04 42.7459 22.8907C42.5902 22.7415 42.4046 22.6268 42.2014 22.5543L38.7918 21.3375V11.7396C38.7918 11.3335 38.6305 10.944 38.3433 10.6568C38.0562 10.3697 37.6667 10.2083 37.2606 10.2083H32.6668V5.61458C32.6668 5.20846 32.5055 4.81898 32.2183 4.53182C31.9312 4.24465 31.5417 4.08333 31.1356 4.08333H17.8648ZM29.6043 10.2083H19.396V7.14583H29.6043V10.2083ZM35.7293 13.2708V20.2452L26.7521 17.0418C25.2919 16.5213 23.6955 16.5285 22.24 17.0622L13.271 20.3432V13.2708H35.7293Z" fill="#4189DD"/>
<path d="M38.2346 37.9015L38.2285 37.881C38.1415 37.5606 37.9527 37.2771 37.6906 37.0732C37.4284 36.8694 37.1071 36.7563 36.7751 36.751C36.4431 36.7457 36.1183 36.8485 35.8498 37.0439C35.5813 37.2392 35.3836 37.5166 35.2864 37.8341V37.8382L35.2782 37.8565L35.2374 37.975C34.9785 38.6679 34.6231 39.3208 34.1819 39.9145C33.3917 40.966 32.2647 41.8541 30.6253 41.8541C28.9858 41.8541 27.8568 40.966 27.0667 39.9145C26.6 39.2863 26.2298 38.592 25.9682 37.8545L25.9621 37.8361C25.8663 37.5222 25.6722 37.2473 25.4083 37.052C25.1444 36.8568 24.8247 36.7515 24.4965 36.7518C24.1682 36.752 23.8487 36.8577 23.5851 37.0533C23.3215 37.2489 23.1277 37.5241 23.0323 37.8382V37.8402L23.0242 37.8606C22.9551 38.0615 22.8768 38.2591 22.7894 38.4527C22.6077 38.857 22.3259 39.3919 21.9319 39.9145C21.1458 40.966 20.0209 41.8541 18.3753 41.8541C16.7297 41.8541 15.6027 40.966 14.8146 39.9145C14.3501 39.2875 13.9819 38.5945 13.7223 37.8586L13.7162 37.8361C13.6197 37.5184 13.4225 37.2407 13.1544 37.0448C12.8863 36.849 12.5618 36.7455 12.2298 36.7501C11.8978 36.7547 11.5763 36.8671 11.3138 37.0704C11.0512 37.2736 10.8618 37.5567 10.7742 37.877L10.768 37.8953L10.7313 38.0056C10.491 38.684 10.1436 39.3195 9.70228 39.888C8.91828 40.8884 7.66879 41.8541 5.61487 41.8541C5.20876 41.8541 4.81928 42.0155 4.53211 42.3026C4.24495 42.5898 4.08362 42.9793 4.08362 43.3854C4.08362 43.7915 4.24495 44.181 4.53211 44.4681C4.81928 44.7553 5.20876 44.9166 5.61487 44.9166C8.82845 44.9166 10.8967 43.3303 12.1135 41.7786L12.2503 41.5969L12.3646 41.752C13.4916 43.2527 15.4271 44.9166 18.3753 44.9166C21.3235 44.9166 23.259 43.2527 24.3839 41.752L24.5003 41.5928L24.6187 41.7541C25.7457 43.2527 27.6812 44.9166 30.6253 44.9166C33.5694 44.9166 35.5049 43.2527 36.6319 41.752L36.7442 41.5989C36.787 41.6602 36.832 41.7173 36.8789 41.7765C38.0937 43.3303 40.166 44.9166 43.3857 44.9166C43.7918 44.9166 44.1813 44.7553 44.4685 44.4681C44.7556 44.181 44.917 43.7915 44.917 43.3854C44.917 42.9793 44.7556 42.5898 44.4685 42.3026C44.1813 42.0155 43.7918 41.8541 43.3857 41.8541C41.3195 41.8541 40.0721 40.8884 39.2922 39.89C38.8295 39.2919 38.4718 38.6195 38.2346 37.9015Z" fill="#4189DD"/>
<path d="M66.184 24.832C66.184 22.656 66.6853 20.704 67.688 18.976C68.712 17.248 70.088 15.904 71.816 14.944C73.5653 13.9627 75.4747 13.472 77.544 13.472C79.912 13.472 82.0133 14.0587 83.848 15.232C85.704 16.384 87.048 18.0267 87.88 20.16H83.496C82.92 18.9867 82.12 18.112 81.096 17.536C80.072 16.96 78.888 16.672 77.544 16.672C76.072 16.672 74.76 17.0027 73.608 17.664C72.456 18.3253 71.5493 19.2747 70.888 20.512C70.248 21.7493 69.928 23.1893 69.928 24.832C69.928 26.4747 70.248 27.9147 70.888 29.152C71.5493 30.3893 72.456 31.3493 73.608 32.032C74.76 32.6933 76.072 33.024 77.544 33.024C78.888 33.024 80.072 32.736 81.096 32.16C82.12 31.584 82.92 30.7093 83.496 29.536H87.88C87.048 31.6693 85.704 33.312 83.848 34.464C82.0133 35.616 79.912 36.192 77.544 36.192C75.4533 36.192 73.544 35.712 71.816 34.752C70.088 33.7707 68.712 32.416 67.688 30.688C66.6853 28.96 66.184 27.008 66.184 24.832ZM95.798 20.928C96.3313 20.032 97.0353 19.3387 97.91 18.848C98.806 18.336 99.862 18.08 101.078 18.08V21.856H100.15C98.7207 21.856 97.6327 22.2187 96.886 22.944C96.1607 23.6693 95.798 24.928 95.798 26.72V36H92.15V18.368H95.798V20.928ZM120.399 18.368V36H116.751V33.92C116.175 34.6453 115.418 35.2213 114.479 35.648C113.562 36.0533 112.581 36.256 111.535 36.256C110.149 36.256 108.901 35.968 107.791 35.392C106.703 34.816 105.839 33.9627 105.199 32.832C104.581 31.7013 104.271 30.336 104.271 28.736V18.368H107.887V28.192C107.887 29.7707 108.282 30.9867 109.071 31.84C109.861 32.672 110.938 33.088 112.303 33.088C113.669 33.088 114.746 32.672 115.535 31.84C116.346 30.9867 116.751 29.7707 116.751 28.192V18.368H120.399ZM127.069 16.032C126.407 16.032 125.853 15.808 125.405 15.36C124.957 14.912 124.733 14.3573 124.733 13.696C124.733 13.0347 124.957 12.48 125.405 12.032C125.853 11.584 126.407 11.36 127.069 11.36C127.709 11.36 128.253 11.584 128.701 12.032C129.149 12.48 129.373 13.0347 129.373 13.696C129.373 14.3573 129.149 14.912 128.701 15.36C128.253 15.808 127.709 16.032 127.069 16.032ZM128.861 18.368V36H125.213V18.368H128.861ZM140.05 36.288C138.663 36.288 137.415 36.0427 136.306 35.552C135.218 35.04 134.354 34.3573 133.714 33.504C133.074 32.6293 132.733 31.6587 132.69 30.592H136.466C136.53 31.3387 136.882 31.968 137.522 32.48C138.183 32.9707 139.005 33.216 139.986 33.216C141.01 33.216 141.799 33.024 142.354 32.64C142.93 32.2347 143.218 31.7227 143.218 31.104C143.218 30.4427 142.898 29.952 142.258 29.632C141.639 29.312 140.647 28.96 139.282 28.576C137.959 28.2133 136.882 27.8613 136.05 27.52C135.218 27.1787 134.493 26.656 133.874 25.952C133.277 25.248 132.978 24.32 132.978 23.168C132.978 22.2293 133.255 21.376 133.81 20.608C134.365 19.8187 135.154 19.2 136.178 18.752C137.223 18.304 138.418 18.08 139.762 18.08C141.767 18.08 143.378 18.592 144.594 19.616C145.831 20.6187 146.493 21.9947 146.578 23.744H142.93C142.866 22.9547 142.546 22.3253 141.97 21.856C141.394 21.3867 140.615 21.152 139.634 21.152C138.674 21.152 137.938 21.3333 137.426 21.696C136.914 22.0587 136.658 22.5387 136.658 23.136C136.658 23.6053 136.829 24 137.17 24.32C137.511 24.64 137.927 24.896 138.418 25.088C138.909 25.2587 139.634 25.4827 140.594 25.76C141.874 26.1013 142.919 26.4533 143.73 26.816C144.562 27.1573 145.277 27.6693 145.874 28.352C146.471 29.0347 146.781 29.9413 146.802 31.072C146.802 32.0747 146.525 32.9707 145.97 33.76C145.415 34.5493 144.626 35.168 143.602 35.616C142.599 36.064 141.415 36.288 140.05 36.288ZM166.904 26.752C166.904 27.4133 166.861 28.0107 166.776 28.544H153.304C153.41 29.952 153.933 31.0827 154.872 31.936C155.81 32.7893 156.962 33.216 158.328 33.216C160.29 33.216 161.677 32.3947 162.488 30.752H166.424C165.89 32.3733 164.92 33.7067 163.512 34.752C162.125 35.776 160.397 36.288 158.328 36.288C156.642 36.288 155.128 35.9147 153.784 35.168C152.461 34.4 151.416 33.3333 150.648 31.968C149.901 30.5813 149.528 28.9813 149.528 27.168C149.528 25.3547 149.89 23.7653 150.616 22.4C151.362 21.0133 152.397 19.9467 153.72 19.2C155.064 18.4533 156.6 18.08 158.328 18.08C159.992 18.08 161.474 18.4427 162.776 19.168C164.077 19.8933 165.09 20.9173 165.816 22.24C166.541 23.5413 166.904 25.0453 166.904 26.752ZM163.096 25.6C163.074 24.256 162.594 23.1787 161.656 22.368C160.717 21.5573 159.554 21.152 158.168 21.152C156.909 21.152 155.832 21.5573 154.936 22.368C154.04 23.1573 153.506 24.2347 153.336 25.6H163.096ZM177.598 18.08C178.963 18.08 180.168 18.3573 181.214 18.912C182.28 19.4453 183.112 20.1173 183.71 20.928V18.368H187.39V36.288C187.39 37.9093 187.048 39.3493 186.366 40.608C185.683 41.888 184.691 42.8907 183.39 43.616C182.11 44.3413 180.574 44.704 178.782 44.704C176.392 44.704 174.408 44.1387 172.83 43.008C171.251 41.8987 170.355 40.384 170.142 38.464H173.758C174.035 39.3813 174.622 40.1173 175.518 40.672C176.435 41.248 177.523 41.536 178.782 41.536C180.254 41.536 181.438 41.088 182.334 40.192C183.251 39.296 183.71 37.9947 183.71 36.288V33.344C183.091 34.176 182.248 34.88 181.182 35.456C180.136 36.0107 178.942 36.288 177.598 36.288C176.062 36.288 174.654 35.904 173.374 35.136C172.115 34.3467 171.112 33.2587 170.366 31.872C169.64 30.464 169.278 28.8747 169.278 27.104C169.278 25.3333 169.64 23.7653 170.366 22.4C171.112 21.0347 172.115 19.9787 173.374 19.232C174.654 18.464 176.062 18.08 177.598 18.08ZM183.71 27.168C183.71 25.952 183.454 24.896 182.942 24C182.451 23.104 181.8 22.4213 180.99 21.952C180.179 21.4827 179.304 21.248 178.366 21.248C177.427 21.248 176.552 21.4827 175.742 21.952C174.931 22.4 174.27 23.072 173.758 23.968C173.267 24.8427 173.022 25.888 173.022 27.104C173.022 28.32 173.267 29.3867 173.758 30.304C174.27 31.2213 174.931 31.9253 175.742 32.416C176.574 32.8853 177.448 33.12 178.366 33.12C179.304 33.12 180.179 32.8853 180.99 32.416C181.8 31.9467 182.451 31.264 182.942 30.368C183.454 29.4507 183.71 28.384 183.71 27.168ZM190.965 27.104C190.965 25.3333 191.328 23.7653 192.053 22.4C192.8 21.0347 193.803 19.9787 195.061 19.232C196.341 18.464 197.749 18.08 199.285 18.08C200.672 18.08 201.877 18.3573 202.901 18.912C203.947 19.4453 204.779 20.1173 205.397 20.928V18.368H209.077V36H205.397V33.376C204.779 34.208 203.936 34.9013 202.869 35.456C201.803 36.0107 200.587 36.288 199.221 36.288C197.707 36.288 196.32 35.904 195.061 35.136C193.803 34.3467 192.8 33.2587 192.053 31.872C191.328 30.464 190.965 28.8747 190.965 27.104ZM205.397 27.168C205.397 25.952 205.141 24.896 204.629 24C204.139 23.104 203.488 22.4213 202.677 21.952C201.867 21.4827 200.992 21.248 200.053 21.248C199.115 21.248 198.24 21.4827 197.429 21.952C196.619 22.4 195.957 23.072 195.445 23.968C194.955 24.8427 194.709 25.888 194.709 27.104C194.709 28.32 194.955 29.3867 195.445 30.304C195.957 31.2213 196.619 31.9253 197.429 32.416C198.261 32.8853 199.136 33.12 200.053 33.12C200.992 33.12 201.867 32.8853 202.677 32.416C203.488 31.9467 204.139 31.264 204.629 30.368C205.141 29.4507 205.397 28.384 205.397 27.168ZM218.125 21.344V31.104C218.125 31.7653 218.274 32.2453 218.573 32.544C218.893 32.8213 219.426 32.96 220.173 32.96H222.413V36H219.533C217.89 36 216.631 35.616 215.757 34.848C214.882 34.08 214.445 32.832 214.445 31.104V21.344H212.365V18.368H214.445V13.984H218.125V18.368H222.413V21.344H218.125ZM233.423 36.288C231.759 36.288 230.255 35.9147 228.911 35.168C227.567 34.4 226.511 33.3333 225.743 31.968C224.975 30.5813 224.591 28.9813 224.591 27.168C224.591 25.376 224.986 23.7867 225.775 22.4C226.564 21.0133 227.642 19.9467 229.007 19.2C230.372 18.4533 231.898 18.08 233.583 18.08C235.268 18.08 236.794 18.4533 238.159 19.2C239.524 19.9467 240.602 21.0133 241.391 22.4C242.18 23.7867 242.575 25.376 242.575 27.168C242.575 28.96 242.17 30.5493 241.359 31.936C240.548 33.3227 239.439 34.4 238.031 35.168C236.644 35.9147 235.108 36.288 233.423 36.288ZM233.423 33.12C234.362 33.12 235.236 32.896 236.047 32.448C236.879 32 237.551 31.328 238.063 30.432C238.575 29.536 238.831 28.448 238.831 27.168C238.831 25.888 238.586 24.8107 238.095 23.936C237.604 23.04 236.954 22.368 236.143 21.92C235.332 21.472 234.458 21.248 233.519 21.248C232.58 21.248 231.706 21.472 230.895 21.92C230.106 22.368 229.476 23.04 229.007 23.936C228.538 24.8107 228.303 25.888 228.303 27.168C228.303 29.0667 228.783 30.5387 229.743 31.584C230.724 32.608 231.951 33.12 233.423 33.12ZM249.829 20.928C250.363 20.032 251.067 19.3387 251.941 18.848C252.837 18.336 253.893 18.08 255.109 18.08V21.856H254.181C252.752 21.856 251.664 22.2187 250.917 22.944C250.192 23.6693 249.829 24.928 249.829 26.72V36H246.181V18.368H249.829V20.928Z" fill="#4189DD"/>
</svg>
