<svg width="200" height="45" viewBox="0 0 170 45" fill="none" xmlns="http://www.w3.org/2000/svg">
<path d="M44.774 22.718C44.774 21.494 45.05 20.396 45.602 19.424C46.154 18.44 46.904 17.672 47.852 17.12C48.812 16.568 49.874 16.292 51.038 16.292C52.406 16.292 53.6 16.622 54.62 17.282C55.64 17.942 56.384 18.878 56.852 20.09H54.89C54.542 19.334 54.038 18.752 53.378 18.344C52.73 17.936 51.95 17.732 51.038 17.732C50.162 17.732 49.376 17.936 48.68 18.344C47.984 18.752 47.438 19.334 47.042 20.09C46.646 20.834 46.448 21.71 46.448 22.718C46.448 23.714 46.646 24.59 47.042 25.346C47.438 26.09 47.984 26.666 48.68 27.074C49.376 27.482 50.162 27.686 51.038 27.686C51.95 27.686 52.73 27.488 53.378 27.092C54.038 26.684 54.542 26.102 54.89 25.346H56.852C56.384 26.546 55.64 27.476 54.62 28.136C53.6 28.784 52.406 29.108 51.038 29.108C49.874 29.108 48.812 28.838 47.852 28.298C46.904 27.746 46.154 26.984 45.602 26.012C45.05 25.04 44.774 23.942 44.774 22.718ZM65.8963 29L62.9083 23.87H60.9283V29H59.2903V16.454H63.3403C64.2883 16.454 65.0863 16.616 65.7343 16.94C66.3943 17.264 66.8863 17.702 67.2103 18.254C67.5343 18.806 67.6963 19.436 67.6963 20.144C67.6963 21.008 67.4443 21.77 66.9403 22.43C66.4483 23.09 65.7043 23.528 64.7083 23.744L67.8583 29H65.8963ZM60.9283 22.556H63.3403C64.2283 22.556 64.8943 22.34 65.3383 21.908C65.7823 21.464 66.0043 20.876 66.0043 20.144C66.0043 19.4 65.7823 18.824 65.3383 18.416C64.9063 18.008 64.2403 17.804 63.3403 17.804H60.9283V22.556ZM71.8435 16.454V24.392C71.8435 25.508 72.1135 26.336 72.6535 26.876C73.2055 27.416 73.9675 27.686 74.9395 27.686C75.8995 27.686 76.6495 27.416 77.1895 26.876C77.7415 26.336 78.0175 25.508 78.0175 24.392V16.454H79.6555V24.374C79.6555 25.418 79.4455 26.3 79.0255 27.02C78.6055 27.728 78.0355 28.256 77.3155 28.604C76.6075 28.952 75.8095 29.126 74.9215 29.126C74.0335 29.126 73.2295 28.952 72.5095 28.604C71.8015 28.256 71.2375 27.728 70.8175 27.02C70.4095 26.3 70.2055 25.418 70.2055 24.374V16.454H71.8435ZM84.026 16.454V29H82.388V16.454H84.026ZM90.7956 29.126C89.9676 29.126 89.2236 28.982 88.5636 28.694C87.9156 28.394 87.4056 27.986 87.0336 27.47C86.6616 26.942 86.4696 26.336 86.4576 25.652H88.2036C88.2636 26.24 88.5036 26.738 88.9236 27.146C89.3556 27.542 89.9796 27.74 90.7956 27.74C91.5756 27.74 92.1876 27.548 92.6316 27.164C93.0876 26.768 93.3156 26.264 93.3156 25.652C93.3156 25.172 93.1836 24.782 92.9196 24.482C92.6556 24.182 92.3256 23.954 91.9296 23.798C91.5336 23.642 90.9996 23.474 90.3276 23.294C89.4996 23.078 88.8336 22.862 88.3296 22.646C87.8376 22.43 87.4116 22.094 87.0516 21.638C86.7036 21.17 86.5296 20.546 86.5296 19.766C86.5296 19.082 86.7036 18.476 87.0516 17.948C87.3996 17.42 87.8856 17.012 88.5096 16.724C89.1456 16.436 89.8716 16.292 90.6876 16.292C91.8636 16.292 92.8236 16.586 93.5676 17.174C94.3236 17.762 94.7496 18.542 94.8456 19.514H93.0456C92.9856 19.034 92.7336 18.614 92.2896 18.254C91.8456 17.882 91.2576 17.696 90.5256 17.696C89.8416 17.696 89.2836 17.876 88.8516 18.236C88.4196 18.584 88.2036 19.076 88.2036 19.712C88.2036 20.168 88.3296 20.54 88.5816 20.828C88.8456 21.116 89.1636 21.338 89.5356 21.494C89.9196 21.638 90.4536 21.806 91.1376 21.998C91.9656 22.226 92.6316 22.454 93.1356 22.682C93.6396 22.898 94.0716 23.24 94.4316 23.708C94.7916 24.164 94.9716 24.788 94.9716 25.58C94.9716 26.192 94.8096 26.768 94.4856 27.308C94.1616 27.848 93.6816 28.286 93.0456 28.622C92.4096 28.958 91.6596 29.126 90.7956 29.126ZM99.0201 17.786V21.98H103.592V23.33H99.0201V27.65H104.132V29H97.3821V16.436H104.132V17.786H99.0201ZM116.115 20.09C115.767 19.358 115.263 18.794 114.603 18.398C113.943 17.99 113.175 17.786 112.299 17.786C111.423 17.786 110.631 17.99 109.923 18.398C109.227 18.794 108.675 19.37 108.267 20.126C107.871 20.87 107.673 21.734 107.673 22.718C107.673 23.702 107.871 24.566 108.267 25.31C108.675 26.054 109.227 26.63 109.923 27.038C110.631 27.434 111.423 27.632 112.299 27.632C113.523 27.632 114.531 27.266 115.323 26.534C116.115 25.802 116.577 24.812 116.709 23.564H111.705V22.232H118.455V23.492C118.359 24.524 118.035 25.472 117.483 26.336C116.931 27.188 116.205 27.866 115.305 28.37C114.405 28.862 113.403 29.108 112.299 29.108C111.135 29.108 110.073 28.838 109.113 28.298C108.153 27.746 107.391 26.984 106.827 26.012C106.275 25.04 105.999 23.942 105.999 22.718C105.999 21.494 106.275 20.396 106.827 19.424C107.391 18.44 108.153 17.678 109.113 17.138C110.073 16.586 111.135 16.31 112.299 16.31C113.631 16.31 114.807 16.64 115.827 17.3C116.859 17.96 117.609 18.89 118.077 20.09H116.115ZM128.036 26.21H122.564L121.556 29H119.828L124.364 16.526H126.254L130.772 29H129.044L128.036 26.21ZM127.568 24.878L125.3 18.542L123.032 24.878H127.568ZM140.471 16.454V17.786H137.051V29H135.413V17.786H131.975V16.454H140.471ZM148.176 29.126C147.012 29.126 145.95 28.856 144.99 28.316C144.03 27.764 143.268 27.002 142.704 26.03C142.152 25.046 141.876 23.942 141.876 22.718C141.876 21.494 142.152 20.396 142.704 19.424C143.268 18.44 144.03 17.678 144.99 17.138C145.95 16.586 147.012 16.31 148.176 16.31C149.352 16.31 150.42 16.586 151.38 17.138C152.34 17.678 153.096 18.434 153.648 19.406C154.2 20.378 154.476 21.482 154.476 22.718C154.476 23.954 154.2 25.058 153.648 26.03C153.096 27.002 152.34 27.764 151.38 28.316C150.42 28.856 149.352 29.126 148.176 29.126ZM148.176 27.704C149.052 27.704 149.838 27.5 150.534 27.092C151.242 26.684 151.794 26.102 152.19 25.346C152.598 24.59 152.802 23.714 152.802 22.718C152.802 21.71 152.598 20.834 152.19 20.09C151.794 19.334 151.248 18.752 150.552 18.344C149.856 17.936 149.064 17.732 148.176 17.732C147.288 17.732 146.496 17.936 145.8 18.344C145.104 18.752 144.552 19.334 144.144 20.09C143.748 20.834 143.55 21.71 143.55 22.718C143.55 23.714 143.748 24.59 144.144 25.346C144.552 26.102 145.104 26.684 145.8 27.092C146.508 27.5 147.3 27.704 148.176 27.704ZM163.244 29L160.256 23.87H158.276V29H156.638V16.454H160.688C161.636 16.454 162.434 16.616 163.082 16.94C163.742 17.264 164.234 17.702 164.558 18.254C164.882 18.806 165.044 19.436 165.044 20.144C165.044 21.008 164.792 21.77 164.288 22.43C163.796 23.09 163.052 23.528 162.056 23.744L165.206 29H163.244ZM158.276 22.556H160.688C161.576 22.556 162.242 22.34 162.686 21.908C163.13 21.464 163.352 20.876 163.352 20.144C163.352 19.4 163.13 18.824 162.686 18.416C162.254 18.008 161.588 17.804 160.688 17.804H158.276V22.556Z" fill="#0055B9"/>
<path d="M37.943 22.8401C37.8454 22.5964 37.6379 22.441 37.41 22.441H32.9528L31.7048 20.4996C31.5933 20.3261 31.4196 20.1967 31.2353 20.1967H29.1986L26.2703 16.1156C26.1582 15.9583 25.9933 15.8675 25.8195 15.8675H22.654L21.9458 13.5951C21.8329 13.2332 21.4937 13.0478 21.188 13.1817C20.8823 13.3154 20.726 13.7171 20.8388 14.0792L21.3962 15.8675H19.2911C19.0093 15.8675 18.7668 16.1035 18.7123 16.4309L18.4327 18.1094H11.3601L11.0804 16.4309C11.0258 16.1035 10.7834 15.8675 10.5016 15.8675H7.90779V13.4709C7.90779 13.0849 7.64364 12.7722 7.31782 12.7722H5.92589C5.68723 12.7722 5.47216 12.9424 5.38083 13.2035L4.44908 15.8675H2.15591C1.87838 15.8675 1.63831 16.0966 1.57939 16.4178C1.57939 16.4178 0.373018 22.9921 0.372939 22.9926C0.364365 23.04 0.359645 23.0891 0.359645 23.1396V27.4822C0.359645 27.6771 0.428396 27.8631 0.549222 27.9954L1.47956 29.0135H0.589969C0.264149 29.0135 0 29.3262 0 29.7121C0 30.098 0.264149 30.4107 0.589969 30.4107H36.008C36.3338 30.4107 36.5979 30.098 36.5979 29.7121C36.5979 29.3262 36.3338 29.0135 36.008 29.0135H34.123L37.8671 23.5814C38.0111 23.3725 38.0407 23.0839 37.943 22.8401ZM25.5454 17.2648L26.1477 18.1098H24.6402C24.3144 18.1098 24.0502 18.4225 24.0502 18.8084C24.0502 19.1944 24.3144 19.5071 24.6402 19.5071H27.1435L27.635 20.1966H21.5844C21.2586 20.1966 20.9944 20.5093 20.9944 20.8953C20.9944 21.2812 21.2586 21.5939 21.5844 21.5939H30.9431L31.4699 22.4409H21.9723C21.6464 22.4409 21.3823 22.7537 21.3823 23.1396V23.9447H10.1891V23.1396C10.1891 22.7537 9.92494 22.4409 9.59912 22.4409H1.68149L2.21986 19.5071H10.8326C10.8406 19.5071 10.8484 19.5061 10.8565 19.5057C10.8627 19.506 10.8688 19.5066 10.875 19.5066L21.7996 19.5071C22.1254 19.5071 22.3896 19.1944 22.3896 18.8085C22.3896 18.4226 22.1255 18.1099 21.7997 18.1098L19.6351 18.1094L19.7758 17.2647H25.5454V17.2648ZM6.32007 14.1696H6.72793V15.8676H5.72616L6.32007 14.1696ZM4.84318 17.2648H7.31782H10.0167L10.1575 18.1098H2.47638L2.63142 17.2648H4.84318ZM32.5999 29.0135H3.21809L1.53951 27.1766V23.8382H9.00915V24.6434C9.00915 25.0293 9.27329 25.342 9.59912 25.342H21.9722C22.298 25.342 22.5622 25.0293 22.5622 24.6434V23.8382H36.1668L32.5999 29.0135Z" fill="#0055B9"/>
<path d="M20.1549 20.1967H12.1542C11.8284 20.1967 11.5643 20.5094 11.5643 20.8953C11.5643 21.2813 11.8284 21.594 12.1542 21.594H20.1549C20.4807 21.594 20.7449 21.2813 20.7449 20.8953C20.7449 20.5094 20.4807 20.1967 20.1549 20.1967Z" fill="#0055B9"/>
<path d="M19.2778 22.1498H13.0314C12.7056 22.1498 12.4414 22.4626 12.4414 22.8485C12.4414 23.2344 12.7056 23.5471 13.0314 23.5471H19.2778C19.6037 23.5471 19.8678 23.2344 19.8678 22.8485C19.8678 22.4626 19.6037 22.1498 19.2778 22.1498Z" fill="#0055B9"/>
<path d="M10.268 20.1967H3.88837C3.56255 20.1967 3.2984 20.5094 3.2984 20.8953C3.2984 21.2813 3.56255 21.594 3.88837 21.594H10.268C10.5938 21.594 10.858 21.2813 10.858 20.8953C10.858 20.5094 10.5938 20.1967 10.268 20.1967Z" fill="#0055B9"/>
<path d="M32.76 25.7083H33.5334C33.8592 25.7083 34.1233 25.3956 34.1233 25.0096C34.1233 24.6237 33.8592 24.311 33.5334 24.311H32.76C32.4342 24.311 32.1701 24.6237 32.1701 25.0096C32.1701 25.3956 32.4342 25.7083 32.76 25.7083Z" fill="#0055B9"/>
<path d="M36.008 30.8304H0.589969C0.264149 30.8304 0 31.1431 0 31.529C0 31.915 0.264149 32.2277 0.589969 32.2277H36.008C36.3338 32.2277 36.5979 31.915 36.5979 31.529C36.5979 31.1431 36.3339 30.8304 36.008 30.8304Z" fill="#0055B9"/>
</svg>
