<svg width="258" height="35" viewBox="0 0 258 35" fill="none" xmlns="http://www.w3.org/2000/svg">
<g clip-path="url(#clip0)">
<path d="M75.9985 20.4656C75.9985 18.5169 76.4153 16.7687 77.2488 15.2212C78.0824 13.6546 79.2149 12.4319 80.6464 11.5531C82.096 10.6743 83.6996 10.2349 85.4573 10.2349C87.523 10.2349 89.3259 10.7602 90.8661 11.811C92.4063 12.8618 93.5298 14.352 94.2365 16.2816H91.2738C90.7483 15.078 89.9873 14.1514 88.9907 13.5018C88.0122 12.8522 86.8344 12.5275 85.4573 12.5275C84.1345 12.5275 82.9476 12.8522 81.8966 13.5018C80.8457 14.1514 80.0212 15.078 79.4232 16.2816C78.8253 17.4661 78.5263 18.8607 78.5263 20.4656C78.5263 22.0513 78.8253 23.4459 79.4232 24.6495C80.0212 25.834 80.8457 26.7511 81.8966 27.4006C82.9476 28.0502 84.1345 28.375 85.4573 28.375C86.8344 28.375 88.0122 28.0598 88.9907 27.4293C89.9873 26.7797 90.7483 25.8531 91.2738 24.6495H94.2365C93.5298 26.56 92.4063 28.0407 90.8661 29.0914C89.3259 30.1231 87.523 30.6389 85.4573 30.6389C83.6996 30.6389 82.096 30.2091 80.6464 29.3493C79.2149 28.4705 78.0824 27.2574 77.2488 25.7099C76.4153 24.1624 75.9985 22.4143 75.9985 20.4656ZM107.893 30.467L103.382 22.2996H100.392V30.467H97.9183V10.4928H104.034C105.465 10.4928 106.67 10.7507 107.649 11.2665C108.645 11.7824 109.388 12.4797 109.878 13.3585C110.367 14.2373 110.612 15.2404 110.612 16.3675C110.612 17.7431 110.231 18.9563 109.47 20.007C108.727 21.0578 107.604 21.7551 106.1 22.099L110.856 30.467H107.893ZM100.392 20.2076H104.034C105.375 20.2076 106.38 19.8637 107.051 19.176C107.721 18.4691 108.057 17.5329 108.057 16.3675C108.057 15.183 107.721 14.266 107.051 13.6164C106.399 12.9669 105.393 12.6421 104.034 12.6421H100.392V20.2076ZM116.874 10.4928V23.1307C116.874 24.9074 117.282 26.2257 118.097 27.0854C118.93 27.9451 120.081 28.375 121.549 28.375C122.998 28.375 124.131 27.9451 124.946 27.0854C125.78 26.2257 126.197 24.9074 126.197 23.1307V10.4928H128.67V23.102C128.67 24.7642 128.353 26.1684 127.719 27.3147C127.085 28.4419 126.224 29.2825 125.137 29.8365C124.068 30.3906 122.863 30.6676 121.522 30.6676C120.181 30.6676 118.967 30.3906 117.879 29.8365C116.81 29.2825 115.959 28.4419 115.325 27.3147C114.708 26.1684 114.4 24.7642 114.4 23.102V10.4928H116.874ZM135.27 10.4928V30.467H132.796V10.4928H135.27ZM145.492 30.6676C144.241 30.6676 143.118 30.4383 142.121 29.9798C141.143 29.5022 140.373 28.8526 139.811 28.0311C139.249 27.1905 138.959 26.2257 138.941 25.1367H141.578C141.668 26.0728 142.031 26.8657 142.665 27.5153C143.317 28.1457 144.26 28.461 145.492 28.461C146.67 28.461 147.594 28.1553 148.264 27.5439C148.953 26.9135 149.297 26.1111 149.297 25.1367C149.297 24.3725 149.098 23.7516 148.699 23.274C148.3 22.7964 147.802 22.4334 147.204 22.185C146.606 21.9366 145.8 21.6692 144.785 21.3826C143.535 21.0387 142.529 20.6948 141.768 20.3509C141.025 20.007 140.382 19.4721 139.838 18.7461C139.313 18.001 139.05 17.0076 139.05 15.7657C139.05 14.6768 139.313 13.712 139.838 12.8713C140.364 12.0307 141.098 11.3812 142.04 10.9226C143 10.4641 144.096 10.2349 145.329 10.2349C147.104 10.2349 148.554 10.7029 149.677 11.6391C150.819 12.5752 151.462 13.817 151.607 15.3645H148.889C148.799 14.6003 148.418 13.9317 147.748 13.3585C147.077 12.7663 146.189 12.4701 145.084 12.4701C144.051 12.4701 143.209 12.7567 142.556 13.3299C141.904 13.8839 141.578 14.6672 141.578 15.6798C141.578 16.4058 141.768 16.998 142.149 17.4565C142.547 17.915 143.027 18.2685 143.589 18.5168C144.169 18.7461 144.975 19.0136 146.008 19.3193C147.258 19.6822 148.264 20.0452 149.025 20.4082C149.786 20.7521 150.439 21.2966 150.982 22.0417C151.526 22.7677 151.798 23.7612 151.798 25.0221C151.798 25.9964 151.553 26.9135 151.064 27.7732C150.574 28.6329 149.85 29.3302 148.889 29.8652C147.929 30.4001 146.796 30.6676 145.492 30.6676ZM157.911 12.6134V19.2906H164.814V21.4399H157.911V28.3177H165.63V30.467H155.437V10.4641H165.63V12.6134H157.911ZM183.724 16.2816C183.199 15.1162 182.438 14.2182 181.441 13.5878C180.445 12.9382 179.285 12.6134 177.962 12.6134C176.639 12.6134 175.443 12.9382 174.374 13.5878C173.323 14.2182 172.49 15.1353 171.874 16.3389C171.276 17.5234 170.977 18.8989 170.977 20.4656C170.977 22.0322 171.276 23.4077 171.874 24.5922C172.49 25.7767 173.323 26.6938 174.374 27.3433C175.443 27.9738 176.639 28.289 177.962 28.289C179.81 28.289 181.332 27.7063 182.528 26.5409C183.724 25.3755 184.422 23.7994 184.621 21.8124H177.065V19.6918H187.258V21.6978C187.113 23.3408 186.624 24.8501 185.79 26.2257C184.957 27.5821 183.86 28.6616 182.501 29.464C181.142 30.2473 179.629 30.6389 177.962 30.6389C176.205 30.6389 174.601 30.2091 173.151 29.3493C171.702 28.4705 170.551 27.2574 169.699 25.7099C168.866 24.1624 168.449 22.4143 168.449 20.4656C168.449 18.5169 168.866 16.7687 169.699 15.2212C170.551 13.6546 171.702 12.4415 173.151 11.5818C174.601 10.7029 176.205 10.2635 177.962 10.2635C179.973 10.2635 181.749 10.7889 183.289 11.8397C184.848 12.8904 185.98 14.3711 186.687 16.2816H183.724ZM201.725 26.0251H193.462L191.94 30.467H189.331L196.18 10.6074H199.034L205.857 30.467H203.247L201.725 26.0251ZM201.019 23.9044L197.594 13.817L194.169 23.9044H201.019ZM220.502 10.4928V12.6134H215.338V30.467H212.865V12.6134H207.673V10.4928H220.502ZM232.137 30.6676C230.379 30.6676 228.776 30.2377 227.326 29.378C225.876 28.4992 224.726 27.286 223.874 25.7385C223.041 24.1719 222.624 22.4143 222.624 20.4656C222.624 18.5169 223.041 16.7687 223.874 15.2212C224.726 13.6546 225.876 12.4415 227.326 11.5818C228.776 10.7029 230.379 10.2635 232.137 10.2635C233.913 10.2635 235.525 10.7029 236.975 11.5818C238.425 12.4415 239.566 13.6451 240.4 15.1926C241.233 16.7401 241.65 18.4977 241.65 20.4656C241.65 22.4334 241.233 24.191 240.4 25.7385C239.566 27.286 238.425 28.4992 236.975 29.378C235.525 30.2377 233.913 30.6676 232.137 30.6676ZM232.137 28.4037C233.46 28.4037 234.647 28.0789 235.697 27.4293C236.767 26.7797 237.6 25.8531 238.198 24.6495C238.814 23.4459 239.122 22.0513 239.122 20.4656C239.122 18.8607 238.814 17.4661 238.198 16.2816C237.6 15.078 236.776 14.1514 235.725 13.5018C234.674 12.8522 233.478 12.5275 232.137 12.5275C230.796 12.5275 229.6 12.8522 228.549 13.5018C227.498 14.1514 226.665 15.078 226.049 16.2816C225.451 17.4661 225.152 18.8607 225.152 20.4656C225.152 22.0513 225.451 23.4459 226.049 24.6495C226.665 25.8531 227.498 26.7797 228.549 27.4293C229.618 28.0789 230.814 28.4037 232.137 28.4037ZM254.89 30.467L250.378 22.2996H247.388V30.467H244.915V10.4928H251.03C252.462 10.4928 253.667 10.7507 254.645 11.2665C255.642 11.7824 256.385 12.4797 256.874 13.3585C257.363 14.2373 257.608 15.2404 257.608 16.3675C257.608 17.7431 257.227 18.9563 256.466 20.007C255.723 21.0578 254.6 21.7551 253.096 22.099L257.852 30.467H254.89ZM247.388 20.2076H251.03C252.371 20.2076 253.377 19.8637 254.047 19.176C254.718 18.4691 255.053 17.5329 255.053 16.3675C255.053 15.183 254.718 14.266 254.047 13.6164C253.395 12.9669 252.389 12.6421 251.03 12.6421H247.388V20.2076Z" fill="white"/>
<path d="M63.9894 18.1495C63.8248 17.7069 63.4748 17.4247 63.0905 17.4247H55.5736L53.4689 13.8986C53.2809 13.5835 52.9879 13.3485 52.6771 13.3485H49.2423L44.3038 5.9362C44.1148 5.6505 43.8367 5.48558 43.5436 5.48558H38.2051L37.0107 1.35836C36.8203 0.701059 36.2483 0.364326 35.7327 0.607521C35.2172 0.850352 34.9536 1.57994 35.1438 2.2376L36.0839 5.48558H32.5337C32.0584 5.48558 31.6495 5.91422 31.5576 6.50886L31.086 9.55742H19.1584L18.6867 6.50886C18.5946 5.91422 18.1858 5.48558 17.7105 5.48558H13.3362V1.13278C13.3362 0.431708 12.8907 -0.13623 12.3412 -0.13623H9.99378C9.59129 -0.13623 9.22858 0.172894 9.07456 0.647115L7.5032 5.48558H3.63586C3.16781 5.48558 2.76295 5.90169 2.66358 6.48506C2.66358 6.48506 0.62908 18.4256 0.628947 18.4265C0.614487 18.5126 0.606527 18.6018 0.606527 18.6935V26.5807C0.606527 26.9347 0.722473 27.2725 0.926241 27.5128L2.49522 29.3619H0.99496C0.445477 29.3619 0 29.9298 0 30.6307C0 31.3316 0.445477 31.8996 0.99496 31.8996H60.7261C61.2755 31.8996 61.7209 31.3316 61.7209 30.6307C61.7209 29.9298 61.2755 29.3619 60.7261 29.3619H57.5471L63.8614 19.4959C64.1042 19.1165 64.1542 18.5923 63.9894 18.1495ZM43.0813 8.02342L44.0971 9.55814H41.5547C41.0053 9.55814 40.5597 10.1261 40.5597 10.827C40.5597 11.528 41.0053 12.096 41.5547 12.096H45.7764L46.6053 13.3483H36.4012C35.8518 13.3483 35.4062 13.9162 35.4062 14.6173C35.4062 15.3182 35.8518 15.8861 36.4012 15.8861H52.1843L53.0728 17.4245H37.0554C36.5058 17.4245 36.0604 17.9926 36.0604 18.6935V20.1557H17.1835V18.6935C17.1835 17.9926 16.738 17.4245 16.1885 17.4245H2.83577L3.74371 12.096H18.2688C18.2822 12.096 18.2954 12.0942 18.3091 12.0934C18.3195 12.094 18.3298 12.0951 18.3403 12.0951L36.7642 12.096C37.3136 12.096 37.7592 11.528 37.7592 10.8272C37.7592 10.1263 37.3138 9.55833 36.7643 9.55814L33.1138 9.55742L33.3511 8.02324H43.0813V8.02342ZM10.6586 2.40179H11.3464V5.48577H9.65694L10.6586 2.40179ZM8.16783 8.02342H12.3412H16.8928L17.1302 9.55814H4.17632L4.43779 8.02342H8.16783ZM54.9785 29.3619H5.42718L2.59632 26.0256V19.9623H15.1936V21.4247C15.1936 22.1256 15.639 22.6936 16.1885 22.6936H37.0553C37.6047 22.6936 38.0503 22.1256 38.0503 21.4247V19.9623H60.9939L54.9785 29.3619Z" fill="white"/>
<path d="M33.9904 13.3486H20.4975C19.9481 13.3486 19.5027 13.9166 19.5027 14.6175C19.5027 15.3185 19.9481 15.8865 20.4975 15.8865H33.9904C34.5398 15.8865 34.9854 15.3185 34.9854 14.6175C34.9854 13.9166 34.5398 13.3486 33.9904 13.3486Z" fill="white"/>
<path d="M32.5113 16.896H21.9769C21.4275 16.896 20.9819 17.4641 20.9819 18.165C20.9819 18.8659 21.4275 19.4338 21.9769 19.4338H32.5113C33.0609 19.4338 33.5063 18.8659 33.5063 18.165C33.5063 17.4641 33.0609 16.896 32.5113 16.896Z" fill="white"/>
<path d="M17.3167 13.3486H6.55771C6.00822 13.3486 5.56274 13.9166 5.56274 14.6175C5.56274 15.3185 6.00822 15.8865 6.55771 15.8865H17.3167C17.8662 15.8865 18.3117 15.3185 18.3117 14.6175C18.3117 13.9166 17.8662 13.3486 17.3167 13.3486Z" fill="white"/>
<path d="M55.2485 23.3591H56.5528C57.1023 23.3591 57.5477 22.7912 57.5477 22.0901C57.5477 21.3892 57.1023 20.8213 56.5528 20.8213H55.2485C54.6991 20.8213 54.2537 21.3892 54.2537 22.0901C54.2537 22.7912 54.6991 23.3591 55.2485 23.3591Z" fill="white"/>
<path d="M60.7261 32.6621H0.99496C0.445477 32.6621 0 33.23 0 33.9309C0 34.632 0.445477 35.1999 0.99496 35.1999H60.7261C61.2755 35.1999 61.7209 34.632 61.7209 33.9309C61.7209 33.23 61.2757 32.6621 60.7261 32.6621Z" fill="white"/>
</g>
<defs>
<clipPath id="clip0">
<rect width="258" height="35" fill="white"/>
</clipPath>
</defs>
</svg>
