<svg width="37" height="37" viewBox="0 0 37 37" fill="none" xmlns="http://www.w3.org/2000/svg">
<path d="M23.125 10.4062C23.7636 10.4062 24.2812 9.88858 24.2812 9.25C24.2812 8.61142 23.7636 8.09375 23.125 8.09375C22.4864 8.09375 21.9688 8.61142 21.9688 9.25C21.9688 9.88858 22.4864 10.4062 23.125 10.4062Z" fill="#F6F5F7"/>
<path d="M26.5938 10.4062C27.2323 10.4062 27.75 9.88858 27.75 9.25C27.75 8.61142 27.2323 8.09375 26.5938 8.09375C25.9552 8.09375 25.4375 8.61142 25.4375 9.25C25.4375 9.88858 25.9552 10.4062 26.5938 10.4062Z" fill="#F6F5F7"/>
<path d="M30.0625 10.4062C30.7011 10.4062 31.2188 9.88858 31.2188 9.25C31.2188 8.61142 30.7011 8.09375 30.0625 8.09375C29.4239 8.09375 28.9062 8.61142 28.9062 9.25C28.9062 9.88858 29.4239 10.4062 30.0625 10.4062Z" fill="#F6F5F7"/>
<path d="M32.375 4.625H4.625C4.01187 4.62561 3.42404 4.86945 2.99049 5.30299C2.55695 5.73654 2.31311 6.32437 2.3125 6.9375V30.0625C2.31311 30.6756 2.55695 31.2635 2.99049 31.697C3.42404 32.1306 4.01187 32.3744 4.625 32.375H32.375C32.9881 32.3744 33.576 32.1306 34.0095 31.697C34.4431 31.2635 34.6869 30.6756 34.6875 30.0625V6.9375C34.6869 6.32437 34.4431 5.73654 34.0095 5.30299C33.576 4.86945 32.9881 4.62561 32.375 4.625ZM32.375 6.9375V11.5625H4.625V6.9375H32.375ZM4.625 13.875H11.5625V30.0625H4.625V13.875ZM13.875 30.0625V13.875H32.375V30.0625H13.875Z" fill="#F6F5F7"/>
</svg>
