<svg width="600" height="600" viewBox="0 0 500 500" fill="none" xmlns="http://www.w3.org/2000/svg">
<path d="M101.79 81.62C108.7 76.2093 116.684 72.3332 125.21 70.25C146.39 65.25 169.63 72.87 185.93 86.56C200.23 98.56 210.79 116.38 217 134.23C222.48 150 223.72 169.69 237.11 181.31C246.54 189.48 260.59 191.1 272.41 187.06C284.23 183.02 293.85 173.98 300.51 163.43C312.15 145 316 121.29 332.3 106.79C338.865 101.107 346.879 97.3571 355.449 95.9588C364.019 94.5604 372.809 95.5683 380.84 98.87C426.63 118.48 408.18 187.21 392.84 221.24C381.33 246.78 363.2 269.58 339.79 284.97C302.63 309.39 255.06 313.46 211.23 305.97C178 300.32 145 288 120 265.38C97.86 245.38 82.9 218.18 75.25 189.38C69.09 166.14 67.59 141.01 75.5 118.3C80.5888 103.818 89.7103 91.0915 101.79 81.62Z" fill="#4189DD"/>
<path opacity="0.9" d="M101.79 81.62C108.7 76.2093 116.684 72.3332 125.21 70.25C146.39 65.25 169.63 72.87 185.93 86.56C200.23 98.56 210.79 116.38 217 134.23C222.48 150 223.72 169.69 237.11 181.31C246.54 189.48 260.59 191.1 272.41 187.06C284.23 183.02 293.85 173.98 300.51 163.43C312.15 145 316 121.29 332.3 106.79C338.865 101.107 346.879 97.3571 355.449 95.9588C364.019 94.5604 372.809 95.5683 380.84 98.87C426.63 118.48 408.18 187.21 392.84 221.24C381.33 246.78 363.2 269.58 339.79 284.97C302.63 309.39 255.06 313.46 211.23 305.97C178 300.32 145 288 120 265.38C97.86 245.38 82.9 218.18 75.25 189.38C69.09 166.14 67.59 141.01 75.5 118.3C80.5888 103.818 89.7103 91.0915 101.79 81.62Z" fill="white"/>
<path d="M250 427.56C357.082 427.56 443.89 422.492 443.89 416.24C443.89 409.988 357.082 404.92 250 404.92C142.917 404.92 56.11 409.988 56.11 416.24C56.11 422.492 142.917 427.56 250 427.56Z" fill="#F5F5F5"/>
<path d="M423 366.76C423 366.76 427.69 351.03 418.19 347.89C408.69 344.75 403 337.4 403.35 329.08C403.7 320.76 393.66 312.66 386.16 320.46C378.66 328.26 379.66 314.46 369.66 311.11C359.66 307.76 351.19 315.89 353.93 323.32C356.67 330.75 346.8 335.4 335 329.08C323.2 322.76 310.18 334.26 312.68 343.26C315.18 352.26 313.14 353.26 305.68 350.26C298.22 347.26 284.83 355.76 289.52 366.76C294.21 377.76 423 366.76 423 366.76Z" fill="#4189DD"/>
<path opacity="0.3" d="M423 366.76C423 366.76 427.69 351.03 418.19 347.89C408.69 344.75 403 337.4 403.35 329.08C403.7 320.76 393.66 312.66 386.16 320.46C378.66 328.26 379.66 314.46 369.66 311.11C359.66 307.76 351.19 315.89 353.93 323.32C356.67 330.75 346.8 335.4 335 329.08C323.2 322.76 310.18 334.26 312.68 343.26C315.18 352.26 313.14 353.26 305.68 350.26C298.22 347.26 284.83 355.76 289.52 366.76C294.21 377.76 423 366.76 423 366.76Z" fill="white"/>
<path d="M171.66 368.26C176.66 363.26 172.16 354.76 167.16 353.76C162.16 352.76 157.16 343.96 156.9 338.36C156.64 332.76 147.66 315.53 133.66 326.17C119.66 336.81 123.92 327.74 113.79 324.75C103.66 321.76 97.28 330.36 101.72 336.81C101.72 336.81 91.55 334.26 87.36 343.76C83.17 353.26 87.36 359.16 87.36 359.16C87.36 359.16 68.22 358.59 69.94 370.43C71.66 382.27 171.66 368.26 171.66 368.26Z" fill="#4189DD"/>
<path opacity="0.3" d="M171.66 368.26C176.66 363.26 172.16 354.76 167.16 353.76C162.16 352.76 157.16 343.96 156.9 338.36C156.64 332.76 147.66 315.53 133.66 326.17C119.66 336.81 123.92 327.74 113.79 324.75C103.66 321.76 97.28 330.36 101.72 336.81C101.72 336.81 91.55 334.26 87.36 343.76C83.17 353.26 87.36 359.16 87.36 359.16C87.36 359.16 68.22 358.59 69.94 370.43C71.66 382.27 171.66 368.26 171.66 368.26Z" fill="white"/>
<path d="M440.16 368.56V382.26H54.16V368.56C54.1304 368.013 54.2113 367.465 54.398 366.95C54.5847 366.434 54.8734 365.962 55.2467 365.56C55.6201 365.159 56.0705 364.837 56.571 364.614C57.0715 364.39 57.612 364.27 58.16 364.26H436.12C436.671 364.265 437.216 364.381 437.721 364.602C438.227 364.823 438.682 365.144 439.059 365.546C439.437 365.948 439.729 366.422 439.918 366.94C440.108 367.458 440.19 368.009 440.16 368.56Z" fill="#263238"/>
<path d="M100.16 364.26H76.16V382.26H100.16V364.26Z" fill="#4189DD"/>
<path d="M145.16 364.26H122.16V382.26H145.16V364.26Z" fill="#4189DD"/>
<path d="M191.16 364.26H167.16V382.26H191.16V364.26Z" fill="#4189DD"/>
<path d="M236.16 364.26H213.16V382.26H236.16V364.26Z" fill="#4189DD"/>
<path d="M281.16 364.26H258.16V382.26H281.16V364.26Z" fill="#4189DD"/>
<path d="M327.16 364.26H303.16V382.26H327.16V364.26Z" fill="#4189DD"/>
<path d="M372.16 364.26H349.16V382.26H372.16V364.26Z" fill="#4189DD"/>
<path d="M418.16 364.26H394.16V382.26H418.16V364.26Z" fill="#4189DD"/>
<g opacity="0.6">
<path opacity="0.6" d="M100.16 364.26H76.16V382.26H100.16V364.26Z" fill="white"/>
<path opacity="0.6" d="M145.16 364.26H122.16V382.26H145.16V364.26Z" fill="white"/>
<path opacity="0.6" d="M191.16 364.26H167.16V382.26H191.16V364.26Z" fill="white"/>
<path opacity="0.6" d="M236.16 364.26H213.16V382.26H236.16V364.26Z" fill="white"/>
<path opacity="0.6" d="M281.16 364.26H258.16V382.26H281.16V364.26Z" fill="white"/>
<path opacity="0.6" d="M327.16 364.26H303.16V382.26H327.16V364.26Z" fill="white"/>
<path opacity="0.6" d="M372.16 364.26H349.16V382.26H372.16V364.26Z" fill="white"/>
<path opacity="0.6" d="M418.16 364.26H394.16V382.26H418.16V364.26Z" fill="white"/>
</g>
<path opacity="0.1" d="M440.16 368.56V382.26H54.16V368.56C54.1304 368.013 54.2113 367.465 54.398 366.95C54.5847 366.434 54.8734 365.962 55.2467 365.56C55.6201 365.159 56.0705 364.837 56.571 364.614C57.0715 364.39 57.612 364.27 58.16 364.26H436.12C436.671 364.265 437.216 364.381 437.721 364.602C438.227 364.823 438.682 365.144 439.059 365.546C439.437 365.948 439.729 366.422 439.918 366.94C440.108 367.458 440.19 368.009 440.16 368.56Z" fill="white"/>
<path d="M198.39 359.61V151.56L268.02 143.17L298.62 149L308.62 150.9L330.09 154.99L344.4 152.17L354.4 150.2L401.5 140.93V348.98L354.4 358.26L344.4 360.23L330.09 363.05L268.02 351.23L263.98 351.72L251.93 353.17L198.39 359.61Z" fill="#4189DD"/>
<path opacity="0.2" d="M198.39 359.61V151.56L268.02 143.17L298.62 149L308.62 150.9L330.09 154.99L344.4 152.17L354.4 150.2L401.5 140.93V348.98L354.4 358.26L344.4 360.23L330.09 363.05L268.02 351.23L263.98 351.72L251.93 353.17L198.39 359.61Z" fill="black"/>
<path d="M344.4 257.46V242C344.401 241.637 344.321 241.278 344.167 240.949C344.012 240.62 343.787 240.329 343.507 240.098C343.226 239.867 342.899 239.7 342.546 239.611C342.194 239.521 341.827 239.511 341.47 239.58L198.39 267.09V256.9L255.16 246C255.494 245.935 255.811 245.802 256.091 245.609C256.371 245.415 256.608 245.166 256.788 244.877C256.967 244.588 257.085 244.265 257.133 243.928C257.182 243.591 257.16 243.248 257.07 242.92L246.16 203.23C245.997 202.632 245.614 202.117 245.087 201.791C244.56 201.464 243.928 201.35 243.32 201.47L198.39 210.13V199.93L250.51 189.88C251.119 189.765 251.749 189.883 252.275 190.211C252.802 190.539 253.185 191.052 253.35 191.65L267 241.39C267.165 241.988 267.548 242.501 268.075 242.829C268.601 243.157 269.231 243.275 269.84 243.16L296.62 238C297.183 237.893 297.691 237.592 298.056 237.151C298.421 236.709 298.621 236.153 298.62 235.58V177.16C298.621 176.587 298.421 176.031 298.056 175.589C297.691 175.148 297.183 174.847 296.62 174.74L264.4 168.8C264.125 168.755 263.845 168.755 263.57 168.8L198.39 179V168.92L263.68 158.65C263.954 158.6 264.236 158.6 264.51 158.65L295.71 164.39C296.065 164.456 296.431 164.443 296.78 164.352C297.13 164.261 297.455 164.094 297.733 163.863C298.011 163.632 298.234 163.343 298.388 163.015C298.541 162.688 298.62 162.331 298.62 161.97V149L308.62 150.9V232.71C308.621 233.074 308.702 233.433 308.858 233.763C309.013 234.092 309.239 234.383 309.52 234.615C309.801 234.847 310.129 235.014 310.481 235.105C310.834 235.195 311.202 235.208 311.56 235.14L342.4 229.2C342.964 229.095 343.473 228.795 343.839 228.352C344.204 227.91 344.403 227.354 344.4 226.78V152.17L354.4 150.17V223.88C354.401 224.244 354.482 224.603 354.637 224.932C354.793 225.261 355.019 225.551 355.3 225.782C355.581 226.013 355.91 226.18 356.262 226.269C356.615 226.359 356.983 226.369 357.34 226.3L378.13 222.3C378.693 222.193 379.201 221.892 379.566 221.451C379.931 221.009 380.131 220.453 380.13 219.88V168.88C380.13 168.308 380.329 167.754 380.695 167.314C381.06 166.874 381.568 166.575 382.13 166.47L401.53 162.47V172.68L392.13 174.62C391.568 174.729 391.061 175.03 390.696 175.471C390.331 175.913 390.131 176.467 390.13 177.04V217.04C390.129 217.403 390.209 217.762 390.363 218.091C390.518 218.42 390.743 218.711 391.023 218.942C391.304 219.173 391.632 219.34 391.984 219.429C392.336 219.519 392.703 219.529 393.06 219.46L401.5 217.84V228L356.4 236.67C355.837 236.781 355.33 237.084 354.965 237.527C354.6 237.97 354.401 238.526 354.4 239.1V308.86C354.401 309.219 354.48 309.573 354.631 309.898C354.783 310.223 355.003 310.511 355.277 310.742C355.551 310.973 355.872 311.142 356.218 311.237C356.564 311.331 356.926 311.35 357.28 311.29L401.5 304V314.1L356.5 321.58C355.92 321.67 355.391 321.962 355.007 322.405C354.622 322.848 354.407 323.413 354.4 324V358.24L344.4 360.24V272.61C344.401 272.251 344.323 271.896 344.172 271.57C344.021 271.244 343.801 270.955 343.526 270.724C343.252 270.492 342.93 270.323 342.583 270.23C342.237 270.136 341.874 270.119 341.52 270.18L304.43 276.57C304.056 276.635 303.702 276.785 303.395 277.009C303.088 277.233 302.837 277.524 302.66 277.86L264 351.72L251.95 353.17L266.73 324.94C266.94 324.536 267.034 324.081 267.001 323.627C266.969 323.173 266.812 322.736 266.547 322.366C266.282 321.995 265.92 321.705 265.5 321.528C265.081 321.35 264.62 321.292 264.17 321.36L198.41 331.36V321.26L273.51 309.83C273.894 309.771 274.259 309.623 274.575 309.397C274.891 309.171 275.15 308.874 275.33 308.53L296.12 268.84C296.295 268.505 296.545 268.216 296.85 267.994C297.155 267.772 297.508 267.623 297.88 267.56L342.38 259.89C342.948 259.785 343.46 259.484 343.829 259.04C344.198 258.596 344.4 258.037 344.4 257.46Z" fill="#4189DD"/>
<path d="M330.07 358L269 346.32L268.24 346.17L267.46 346.27L263.46 346.76L251.46 348.21L203.39 354V156L267.84 148.24L297.68 153.92L307.68 155.82L329.15 159.91L330.15 160.09L331.1 159.91L345.41 157.09L355.41 155.09L396.5 147V344.87L353.43 353.36L343.43 355.36L330.07 358ZM330.07 363.09L344.38 360.27L354.38 358.27L401.5 349V141L354.4 150.27L344.4 152.27L330.09 155L308.62 150.91L298.62 149.01L268 143.17L198.37 151.56V359.61L251.91 353.17L264 351.72L268 351.23L330.07 363.05V363.09Z" fill="#263238"/>
<path opacity="0.1" d="M330.07 358L269 346.32L268.24 346.17L267.46 346.27L263.46 346.76L251.46 348.21L203.39 354V156L267.84 148.24L297.68 153.92L307.68 155.82L329.15 159.91L330.15 160.09L331.1 159.91L345.41 157.09L355.41 155.09L396.5 147V344.87L353.43 353.36L343.43 355.36L330.07 358ZM330.07 363.09L344.38 360.27L354.38 358.27L401.5 349V141L354.4 150.27L344.4 152.27L330.09 155L308.62 150.91L298.62 149.01L268 143.17L198.37 151.56V359.61L251.91 353.17L264 351.72L268 351.23L330.07 363.05V363.09Z" fill="white"/>
<path opacity="0.1" d="M330.09 363.05V154.99L268.02 143.17V351.23L330.09 363.05Z" fill="black"/>
<g opacity="0.5">
<path opacity="0.5" d="M376.42 227.15C376.685 227.126 376.949 227.209 377.153 227.379C377.358 227.55 377.486 227.795 377.51 228.06C377.534 228.325 377.451 228.589 377.281 228.794C377.11 228.998 376.865 229.126 376.6 229.15L350.4 233.85V263.75C350.403 263.988 350.322 264.22 350.17 264.403C350.017 264.587 349.805 264.71 349.57 264.75L300.57 273.2L276.42 319C276.361 319.119 276.278 319.226 276.177 319.313C276.076 319.4 275.959 319.466 275.832 319.507C275.705 319.548 275.572 319.564 275.439 319.552C275.306 319.541 275.177 319.503 275.059 319.441C274.941 319.379 274.836 319.294 274.752 319.191C274.667 319.088 274.604 318.969 274.566 318.842C274.528 318.714 274.515 318.58 274.53 318.447C274.544 318.315 274.585 318.187 274.65 318.07L299.06 271.78C299.131 271.645 299.232 271.528 299.355 271.438C299.478 271.348 299.62 271.287 299.77 271.26L348.4 262.86V233C348.396 232.763 348.476 232.533 348.627 232.35C348.777 232.167 348.987 232.043 349.22 232L376.22 227.15H376.42Z" fill="white"/>
<path opacity="0.5" d="M273.65 318.57C273.648 318.195 273.757 317.828 273.964 317.516C274.171 317.204 274.466 316.96 274.812 316.816C275.158 316.671 275.539 316.633 275.906 316.706C276.274 316.778 276.611 316.959 276.876 317.223C277.141 317.488 277.321 317.826 277.394 318.194C277.467 318.561 277.428 318.942 277.284 319.288C277.14 319.634 276.896 319.929 276.584 320.136C276.271 320.342 275.905 320.452 275.53 320.45C275.032 320.447 274.555 320.248 274.203 319.896C273.851 319.544 273.653 319.068 273.65 318.57Z" fill="white"/>
<path opacity="0.5" d="M374.54 228.15C374.538 227.775 374.647 227.409 374.854 227.096C375.061 226.784 375.356 226.54 375.702 226.396C376.048 226.251 376.429 226.213 376.796 226.286C377.164 226.358 377.501 226.539 377.766 226.804C378.031 227.068 378.211 227.406 378.284 227.774C378.357 228.141 378.318 228.522 378.174 228.868C378.03 229.214 377.786 229.509 377.474 229.716C377.161 229.923 376.795 230.032 376.42 230.03C375.921 230.03 375.443 229.832 375.091 229.479C374.738 229.127 374.54 228.649 374.54 228.15Z" fill="white"/>
</g>
<path d="M276.51 289.08C275.463 288.032 274.22 287.2 272.852 286.633C271.483 286.065 270.016 285.773 268.535 285.773C267.054 285.773 265.587 286.065 264.218 286.633C262.85 287.2 261.607 288.032 260.56 289.08C259.513 290.127 258.683 291.369 258.116 292.737C257.55 294.104 257.258 295.57 257.258 297.05C257.258 298.53 257.55 299.996 258.116 301.363C258.683 302.731 259.513 303.973 260.56 305.02L268.56 313.02L276.56 305.02C277.604 303.97 278.43 302.725 278.992 301.356C279.554 299.986 279.841 298.52 279.837 297.04C279.832 295.559 279.536 294.095 278.965 292.729C278.394 291.363 277.56 290.123 276.51 289.08ZM265.29 300.29C264.648 299.648 264.211 298.83 264.033 297.94C263.856 297.049 263.947 296.126 264.294 295.288C264.642 294.449 265.23 293.732 265.985 293.227C266.74 292.723 267.627 292.454 268.535 292.454C269.443 292.454 270.33 292.723 271.085 293.227C271.84 293.732 272.428 294.449 272.776 295.288C273.123 296.126 273.214 297.049 273.037 297.94C272.859 298.83 272.422 299.648 271.78 300.29C271.354 300.717 270.849 301.056 270.292 301.288C269.735 301.519 269.138 301.638 268.535 301.638C267.932 301.638 267.335 301.519 266.778 301.288C266.221 301.056 265.716 300.717 265.29 300.29Z" fill="white"/>
<path opacity="0.2" d="M276.51 289.08C275.455 288.023 274.199 287.186 272.817 286.619C271.435 286.053 269.954 285.767 268.46 285.78V292.47C269.079 292.441 269.697 292.538 270.277 292.755C270.858 292.972 271.388 293.304 271.836 293.732C272.284 294.159 272.641 294.673 272.885 295.243C273.128 295.812 273.254 296.425 273.254 297.045C273.254 297.664 273.128 298.277 272.885 298.847C272.641 299.416 272.284 299.931 271.836 300.358C271.388 300.786 270.858 301.118 270.277 301.335C269.697 301.552 269.079 301.649 268.46 301.62V312.92L268.53 312.99L276.53 304.99C278.632 302.875 279.811 300.013 279.807 297.031C279.803 294.049 278.618 291.19 276.51 289.08Z" fill="black"/>
<path d="M384.39 196.78C383.343 195.733 382.101 194.903 380.733 194.336C379.366 193.77 377.9 193.478 376.42 193.478C374.94 193.478 373.474 193.77 372.107 194.336C370.739 194.903 369.497 195.733 368.45 196.78C366.338 198.896 365.151 201.765 365.151 204.755C365.151 207.745 366.338 210.613 368.45 212.73L376.45 220.73L384.45 212.73C385.494 211.679 386.321 210.433 386.884 209.062C387.446 207.692 387.732 206.224 387.727 204.742C387.721 203.261 387.424 201.795 386.851 200.429C386.279 199.063 385.442 197.823 384.39 196.78ZM373.18 208C372.537 207.359 372.098 206.541 371.919 205.65C371.741 204.759 371.831 203.835 372.178 202.996C372.525 202.156 373.113 201.438 373.868 200.933C374.623 200.428 375.512 200.159 376.42 200.159C377.329 200.159 378.217 200.428 378.972 200.933C379.727 201.438 380.315 202.156 380.662 202.996C381.009 203.835 381.099 204.759 380.921 205.65C380.742 206.541 380.304 207.359 379.66 208C378.8 208.857 377.635 209.339 376.42 209.339C375.205 209.339 374.04 208.857 373.18 208Z" fill="white"/>
<path opacity="0.2" d="M384.39 196.78C383.34 195.731 382.092 194.9 380.719 194.335C379.346 193.771 377.875 193.483 376.39 193.49V200.18C377.009 200.151 377.627 200.248 378.207 200.465C378.788 200.682 379.318 201.014 379.766 201.442C380.214 201.869 380.571 202.383 380.815 202.953C381.058 203.522 381.184 204.135 381.184 204.755C381.184 205.374 381.058 205.987 380.815 206.557C380.571 207.126 380.214 207.641 379.766 208.068C379.318 208.496 378.788 208.828 378.207 209.045C377.627 209.262 377.009 209.359 376.39 209.33V220.63L376.46 220.7L384.46 212.7C386.559 210.578 387.73 207.71 387.717 204.725C387.704 201.741 386.507 198.883 384.39 196.78Z" fill="black"/>
<path d="M92.03 394.99L97.57 400.58L110.96 388.23L105.42 382.63L92.03 394.99Z" fill="#EEC1BB"/>
<path d="M99.0001 400.71L92.2801 393.93C92.1687 393.819 92.0234 393.749 91.8674 393.731C91.7114 393.713 91.5538 393.748 91.4201 393.83L85.3601 397.65C85.1012 397.818 84.9192 398.082 84.8536 398.383C84.7881 398.685 84.8443 399 85.0101 399.26C85.0578 399.331 85.1113 399.398 85.1701 399.46C87.3801 401.62 89.1001 403.08 91.8301 405.84C93.5101 407.54 98.4101 412.84 100.73 415.18C103.05 417.52 105.67 415.54 104.94 414.37C101.61 409.13 99.7001 404.6 99.5701 402C99.5526 401.513 99.3485 401.051 99.0001 400.71Z" fill="#263238"/>
<path opacity="0.2" d="M105.42 382.64L110.95 388.23L104.04 394.6L98.51 389.01L105.42 382.64Z" fill="black"/>
<path d="M98.5901 401.86C98.5681 401.83 98.5563 401.793 98.5563 401.755C98.5563 401.718 98.5681 401.681 98.5901 401.65C98.6103 401.62 98.6401 401.598 98.6746 401.587C98.7091 401.576 98.7463 401.577 98.7801 401.59C99.1101 401.66 102 402.37 102.29 403.3C102.328 403.401 102.336 403.512 102.311 403.617C102.286 403.722 102.23 403.817 102.15 403.89C102.037 404.045 101.885 404.166 101.709 404.242C101.533 404.318 101.34 404.345 101.15 404.32C100.622 404.222 100.145 403.943 99.8001 403.53C99.3352 403.021 98.9293 402.461 98.5901 401.86ZM99.1501 402.06C99.574 402.931 100.314 403.607 101.22 403.95C101.344 403.96 101.469 403.939 101.582 403.888C101.696 403.838 101.795 403.759 101.87 403.66C101.97 403.55 101.98 403.45 101.94 403.42C101.917 403.34 101.872 403.267 101.81 403.21C101.005 402.66 100.102 402.269 99.1501 402.06Z" fill="#4189DD"/>
<path d="M98.5201 401.85C98.5153 401.818 98.5182 401.784 98.5286 401.753C98.539 401.722 98.5567 401.693 98.5801 401.67C98.6601 401.6 100.4 400.14 101.58 400.27C101.723 400.279 101.861 400.319 101.987 400.386C102.113 400.453 102.223 400.547 102.31 400.66C102.407 400.762 102.467 400.893 102.48 401.033C102.493 401.173 102.457 401.313 102.38 401.43C101.9 402.13 99.5701 402.23 98.6901 401.97L98.6201 401.9C98.6009 401.899 98.5821 401.894 98.5649 401.886C98.5477 401.877 98.5324 401.865 98.5201 401.85ZM101.58 400.6C100.688 400.699 99.8496 401.073 99.1801 401.67C100.18 401.81 101.82 401.6 102.11 401.17C102.11 401.17 102.22 401.02 102.05 400.85L101.99 400.78C101.881 400.671 101.734 400.607 101.58 400.6Z" fill="#4189DD"/>
<path d="M182.63 195.21C182.63 195.21 195.12 215.21 197.49 217.72C199.86 220.23 215.49 194.07 216.71 190.58C217.93 187.09 233.56 186.99 234.63 187.44C235.7 187.89 234.98 195.44 231.98 196.99C228.98 198.54 218.67 198.14 218.67 198.14C218.67 198.14 209.59 227.39 198.91 228.88C188.23 230.37 176.59 203.93 176.59 203.93L182.63 195.21Z" fill="#EEC1BB"/>
<path d="M173.47 185.27C181.31 186.67 191.59 207.84 191.59 207.84L182.53 219.7L171.26 209L173.47 185.27Z" fill="#4189DD"/>
<path opacity="0.4" d="M191.59 207.84L182.53 219.7L182.23 219.41L171.23 209.02L171.37 207.5L173.44 185.27C181.31 186.67 191.59 207.84 191.59 207.84Z" fill="white"/>
<path opacity="0.2" d="M182.23 219.41L171.23 209.02L171.37 207.5L175.18 199.79C175.18 199.79 182.18 206.57 182.23 219.41Z" fill="black"/>
<path d="M171.26 254.48C171.26 254.48 152.71 323.75 140 351C127.29 378.25 109.39 392.54 109.39 392.54L101.1 382.32C101.1 382.32 124.4 349.18 129.45 328.73C134.5 308.28 136.19 266 136.19 266L171.26 254.48Z" fill="#263238"/>
<path opacity="0.2" d="M171.26 254.48C171.26 254.48 152.71 323.75 140 351C127.29 378.25 109.39 392.54 109.39 392.54L101.1 382.32C101.1 382.32 124.4 349.18 129.45 328.73C134.5 308.28 136.19 266 136.19 266L171.26 254.48Z" fill="black"/>
<path d="M176.73 410.37L184.19 407.88L179.04 390.4L171.57 392.89L176.73 410.37Z" fill="#EEC1BB"/>
<path d="M184.93 406.67L175.87 409.67C175.723 409.723 175.598 409.823 175.514 409.956C175.431 410.088 175.394 410.244 175.41 410.4L176.16 417.53C176.2 417.831 176.357 418.104 176.596 418.291C176.835 418.478 177.138 418.564 177.44 418.53C177.525 418.519 177.609 418.499 177.69 418.47C180.6 417.47 182.69 416.55 186.36 415.32C188.63 414.57 195.54 412.52 198.67 411.48C201.8 410.44 201.18 407.2 199.81 407.35C193.64 408.01 188.73 407.72 186.34 406.68C185.889 406.497 185.384 406.493 184.93 406.67Z" fill="#263238"/>
<path opacity="0.2" d="M171.58 392.9L179.04 390.41L181.69 399.42L174.23 401.91L171.58 392.9Z" fill="black"/>
<path d="M185.79 407.53C185.752 407.535 185.714 407.526 185.681 407.506C185.648 407.486 185.623 407.456 185.61 407.42C185.587 407.392 185.575 407.356 185.575 407.32C185.575 407.284 185.587 407.248 185.61 407.22C185.81 406.96 187.73 404.68 188.7 404.83C188.807 404.844 188.908 404.888 188.992 404.957C189.075 405.026 189.137 405.117 189.17 405.22C189.249 405.391 189.285 405.579 189.275 405.768C189.264 405.956 189.208 406.139 189.11 406.3C188.788 406.726 188.329 407.026 187.81 407.15C187.152 407.349 186.475 407.476 185.79 407.53ZM186.22 407.11C187.186 407.122 188.12 406.765 188.83 406.11C188.889 406.001 188.919 405.879 188.919 405.755C188.919 405.631 188.889 405.509 188.83 405.4C188.77 405.26 188.69 405.21 188.64 405.23C188.563 405.201 188.477 405.201 188.4 405.23C187.561 405.713 186.821 406.351 186.22 407.11Z" fill="#4189DD"/>
<path d="M185.76 407.58C185.726 407.575 185.695 407.56 185.67 407.537C185.645 407.513 185.628 407.483 185.62 407.45C185.62 407.34 185.06 405.14 185.68 404.15C185.752 404.026 185.85 403.919 185.968 403.836C186.085 403.753 186.219 403.697 186.36 403.67C186.494 403.624 186.639 403.628 186.771 403.679C186.903 403.73 187.012 403.826 187.08 403.95C187.5 404.68 186.56 406.82 185.93 407.5H185.84C185.824 407.536 185.796 407.564 185.76 407.58ZM185.98 404.28C185.683 405.127 185.648 406.043 185.88 406.91C186.45 406.08 186.99 404.52 186.73 404.06C186.73 404.06 186.64 403.89 186.42 403.97H186.33C186.186 404.03 186.069 404.14 186 404.28H185.98Z" fill="#4189DD"/>
<path d="M129.46 249.93C126.594 262.941 126.871 276.448 130.27 289.33C134.58 304.81 171.39 398.49 171.39 398.49L184.19 394.81L157.12 283.35C157.12 283.35 167.24 269.02 171.26 254.48L129.46 249.93Z" fill="#263238"/>
<path d="M186.28 396.3L170.19 401.67L166.18 396.15L185.18 390.97L186.28 396.3Z" fill="#4189DD"/>
<path opacity="0.3" d="M186.28 396.3L170.19 401.67L166.18 396.15L185.18 390.97L186.28 396.3Z" fill="white"/>
<path d="M108.87 397.33L96.9401 385.28L100.11 379.24L113.16 393.98L108.87 397.33Z" fill="#4189DD"/>
<path opacity="0.3" d="M108.87 397.33L96.9401 385.28L100.11 379.24L113.16 393.98L108.87 397.33Z" fill="white"/>
<path d="M134.39 181.67C135.162 190.433 135.279 199.24 134.74 208.02C134.4 214.15 133.8 219.94 133.14 225.19C131.6 237.47 125.33 260.25 125.33 260.25L157.64 268.75L160.57 254.48L163.57 268.75L170 264.8C180 233.07 180.26 201.06 179 191.86C178.799 190.345 178.169 188.92 177.184 187.752C176.199 186.584 174.899 185.723 173.44 185.27C171.97 184.81 170.26 184.27 168.44 183.87C167.73 183.74 167.04 183.55 166.32 183.41C160.436 182.419 154.499 181.771 148.54 181.47C147.42 181.4 146.27 181.37 145.15 181.35C141.56 181.27 137.969 181.376 134.39 181.67Z" fill="#4189DD"/>
<path opacity="0.4" d="M170 264.8L163.59 268.75L160.59 254.48L157.66 268.75L125.35 260.25C125.35 260.25 131.62 237.47 133.16 225.19C133.32 223.94 133.47 222.66 133.62 221.35C134.09 217.16 134.5 212.69 134.76 208.02C134.92 205.46 135.02 202.89 135.06 200.33C135.174 194.103 134.957 187.874 134.41 181.67C138.002 181.375 141.607 181.268 145.21 181.35C146.33 181.35 147.48 181.4 148.6 181.47C154.559 181.771 160.496 182.419 166.38 183.41C167.1 183.55 167.79 183.74 168.5 183.87C170.31 184.31 172.02 184.81 173.5 185.27C174.959 185.723 176.259 186.584 177.244 187.752C178.229 188.92 178.859 190.345 179.06 191.86C180.25 201.06 180 233.07 170 264.8Z" fill="white"/>
<path d="M152.52 161.59C153.02 167.44 153 178.04 148.58 181.42C150.142 183.447 152.121 185.115 154.382 186.312C156.644 187.509 159.136 188.208 161.69 188.36C166.62 188.79 167.25 185.36 166.36 183.36C160.14 181.14 160.82 176.43 162.42 172.1L152.52 161.59Z" fill="#EEC1BB"/>
<path opacity="0.2" d="M156.56 165.89L162.41 172.09C162.029 173.097 161.731 174.134 161.52 175.19C159.12 174.58 156.08 171.54 156.09 168.96C156.05 167.916 156.21 166.874 156.56 165.89Z" fill="black"/>
<path d="M152.77 152.92C152.39 160.71 151.77 165.25 155.28 169.63C160.52 176.25 170.46 173.74 173.17 166.21C175.59 159.43 175.78 147.82 168.53 143.92C166.934 143.046 165.14 142.595 163.32 142.612C161.499 142.628 159.714 143.11 158.133 144.013C156.553 144.915 155.23 146.208 154.291 147.768C153.352 149.327 152.828 151.101 152.77 152.92Z" fill="#EEC1BB"/>
<path d="M164.28 156.36C164.17 156.98 164.49 157.54 164.91 157.58C165.33 157.62 165.71 157.15 165.78 156.52C165.85 155.89 165.57 155.34 165.16 155.3C164.75 155.26 164.36 155.73 164.28 156.36Z" fill="#263238"/>
<path d="M171.41 157.14C171.3 157.76 171.63 158.31 172.03 158.36C172.43 158.41 172.83 157.92 172.91 157.29C172.99 156.66 172.69 156.12 172.28 156.07C171.87 156.02 171.48 156.54 171.41 157.14Z" fill="#263238"/>
<path d="M169.11 157.2C169.652 159.21 170.47 161.135 171.54 162.92C171.073 163.183 170.555 163.34 170.022 163.381C169.488 163.423 168.952 163.347 168.45 163.16L169.11 157.2Z" fill="#D4827D"/>
<path d="M162.32 153.82C162.388 153.835 162.458 153.833 162.524 153.814C162.591 153.795 162.651 153.759 162.7 153.71C163.01 153.36 163.398 153.088 163.832 152.914C164.266 152.74 164.734 152.67 165.2 152.71C165.248 152.719 165.297 152.718 165.345 152.707C165.392 152.697 165.437 152.677 165.477 152.649C165.517 152.622 165.551 152.586 165.578 152.545C165.604 152.504 165.622 152.458 165.63 152.41C165.64 152.362 165.64 152.312 165.63 152.264C165.621 152.216 165.601 152.171 165.573 152.13C165.545 152.09 165.509 152.056 165.467 152.03C165.425 152.004 165.379 151.987 165.33 151.98C164.744 151.911 164.15 151.985 163.599 152.193C163.047 152.402 162.554 152.741 162.16 153.18C162.092 153.249 162.053 153.343 162.053 153.44C162.053 153.537 162.092 153.631 162.16 153.7L162.32 153.82Z" fill="#263238"/>
<path d="M165.19 165.71C164.29 165.531 163.446 165.138 162.731 164.564C162.015 163.989 161.449 163.25 161.08 162.41C161.066 162.361 161.071 162.308 161.093 162.262C161.115 162.216 161.153 162.18 161.2 162.16C161.223 162.15 161.248 162.145 161.273 162.145C161.298 162.144 161.323 162.149 161.346 162.158C161.369 162.167 161.39 162.181 161.408 162.199C161.426 162.216 161.44 162.237 161.45 162.26C161.814 163.022 162.349 163.689 163.013 164.209C163.678 164.73 164.454 165.089 165.28 165.26C165.305 165.264 165.329 165.272 165.351 165.285C165.373 165.299 165.392 165.316 165.406 165.336C165.421 165.357 165.432 165.38 165.438 165.405C165.444 165.429 165.444 165.455 165.44 165.48C165.436 165.505 165.428 165.529 165.415 165.551C165.402 165.573 165.384 165.592 165.364 165.606C165.343 165.621 165.32 165.632 165.295 165.638C165.271 165.644 165.245 165.644 165.22 165.64L165.19 165.71Z" fill="#263238"/>
<path d="M174.74 155C174.811 155.025 174.889 155.025 174.96 155C175.051 154.966 175.126 154.898 175.169 154.811C175.212 154.724 175.219 154.623 175.19 154.53C175.003 153.969 174.683 153.461 174.259 153.048C173.834 152.636 173.317 152.331 172.75 152.16C172.655 152.142 172.556 152.161 172.474 152.213C172.393 152.265 172.334 152.346 172.31 152.44C172.291 152.535 172.308 152.634 172.358 152.717C172.408 152.801 172.487 152.862 172.58 152.89C173.025 153.036 173.429 153.284 173.76 153.614C174.092 153.944 174.342 154.346 174.49 154.79C174.512 154.843 174.546 154.889 174.589 154.926C174.633 154.963 174.684 154.988 174.74 155Z" fill="#263238"/>
<path d="M154.09 159.51C154.09 159.51 159.02 153.14 157.76 147.27C160.449 146.919 163.174 147.555 165.43 149.06C165.482 148.153 165.425 147.243 165.26 146.35C165.26 146.35 172.26 146.84 175.67 151.28C175.629 148.691 174.74 146.186 173.14 144.15C174.173 143.966 175.238 144.091 176.2 144.51C176.2 144.51 170.61 138.62 160.38 140.17C150.15 141.72 146.27 147.28 147.38 156.36C148.49 165.44 152.91 168 152.91 168C152.91 168 151.84 161.06 152.48 159.62C153.12 158.18 154.09 159.51 154.09 159.51Z" fill="#263238"/>
<path d="M148.35 161.08C149.212 162.841 150.737 164.189 152.59 164.83C155.05 165.66 156.42 163.48 155.86 161.09C155.33 158.96 153.44 155.9 150.86 156.09C148.28 156.28 147.32 158.9 148.35 161.08Z" fill="#EEC1BB"/>
<path d="M168.54 140.33C166.118 140.727 163.735 141.336 161.42 142.15C159.763 142.733 158.158 143.452 156.62 144.3C149.09 148.45 147.17 153.81 147.17 153.81C147.17 153.81 146.93 153.13 146.61 152.07C146.29 151.01 145.86 149.63 145.47 148.19C144.72 145.49 144.1 142.67 144.47 141.86C147.68 134.63 157.86 132.6 159.23 133C160.06 133.25 163.23 135.83 165.66 137.86C166.89 138.86 167.92 139.76 168.35 140.14L168.54 140.33Z" fill="#4189DD"/>
<path opacity="0.6" d="M168.32 140.14C165.947 140.524 163.63 141.196 161.42 142.14C160.02 142.7 158.42 143.41 156.62 144.29C150.91 147.07 148.04 149.86 146.62 152.06C146.29 151.01 145.87 149.62 145.48 148.18C148.29 145.36 155.81 138.8 165.66 137.85C166.86 138.87 167.89 139.76 168.32 140.14Z" fill="white"/>
<path d="M147.35 156.36C147.35 156.36 140.49 161.17 140.06 158.61C138.95 152.04 157.15 137.61 174.91 137.95C189.5 138.22 173.81 142.68 173.81 142.68C168 140.67 146.89 149.85 147.35 156.36Z" fill="#4189DD"/>
<path opacity="0.3" d="M147.35 156.36C147.35 156.36 140.49 161.17 140.06 158.61C138.95 152.04 157.15 137.61 174.91 137.95C189.5 138.22 173.81 142.68 173.81 142.68C168 140.67 146.89 149.85 147.35 156.36Z" fill="black"/>
<path d="M149.46 177.57C149.46 177.57 152.9 181.15 161.07 185C161.07 185 163.01 183.51 163.26 179L168.48 183.91L167.32 192.14L163.85 188.31L162.05 212.23C162.05 212.23 163.18 196.23 159.25 189.08L156.62 193.14C156.62 193.14 147.12 189.85 144.34 181.36L149.46 177.57Z" fill="#4189DD"/>
<path opacity="0.6" d="M168.48 183.87L167.32 192.1L163.85 188.27L162.05 212.19C162.05 212.19 163.18 196.19 159.25 189.04L156.62 193.1C156.62 193.1 147.12 189.81 144.34 181.32L149.46 177.57C149.46 177.57 152.9 181.15 161.07 185C161.29 184.82 163.01 183.25 163.24 179L168.48 183.87Z" fill="white"/>
<path opacity="0.2" d="M162.41 197.45C162.12 191.45 161.07 185 161.07 185C161.29 184.82 163.01 183.25 163.24 179C163.541 179.855 163.644 180.767 163.542 181.668C163.44 182.568 163.135 183.434 162.65 184.2L162.41 197.45Z" fill="black"/>
<path d="M119 266.25C119.862 267.83 120.315 269.6 120.32 271.4C120.45 274.69 119.78 281.14 119 281.95C118.54 282.42 110.85 280.26 110.1 278.35C109.76 277.48 111.1 268.63 112.67 266.25C114.24 263.87 119 266.25 119 266.25Z" fill="#EEC1BB"/>
<path opacity="0.2" d="M144.09 202.59C144.09 202.59 140.47 216.59 133.6 221.35C134.07 217.16 134.48 212.69 134.74 208.02C134.9 205.46 135 202.89 135.04 200.33L144.09 202.59Z" fill="black"/>
<path d="M125.33 199.79C125.33 199.79 116.04 216.14 114.33 221.68C112.62 227.22 112.65 266.25 112.65 266.25H119C119 266.25 123 227.48 125.33 222.47C127.66 217.46 136.19 205.91 136.19 205.91L125.33 199.79Z" fill="#EEC1BB"/>
<path d="M136 181.57C131.75 180.89 120.34 205.81 120.34 205.81L132.34 213.34C132.34 213.34 140.18 206.04 144.07 202.59C147.96 199.14 142.9 182.68 136 181.57Z" fill="#4189DD"/>
<path opacity="0.4" d="M136 181.57C131.75 180.89 120.34 205.81 120.34 205.81L132.34 213.34C132.34 213.34 140.18 206.04 144.07 202.59C147.96 199.14 142.9 182.68 136 181.57Z" fill="white"/>
<path d="M120.32 204.08L134.38 213.34L131.26 216.14L118.8 208.03L120.32 204.08Z" fill="#4189DD"/>
<path opacity="0.6" d="M120.32 204.08L134.38 213.34L131.26 216.14L118.8 208.03L120.32 204.08Z" fill="white"/>
<path d="M180.17 218.85L190.91 205.89L193.36 209.29L183.94 220.79L180.17 218.85Z" fill="#4189DD"/>
<path opacity="0.6" d="M180.17 218.85L190.91 205.89L193.36 209.29L183.94 220.79L180.17 218.85Z" fill="white"/>
<path d="M221.28 188.15L231.88 173.45C231.95 173.355 232.045 173.282 232.155 173.238C232.264 173.193 232.384 173.18 232.5 173.2L239.42 174.42C239.527 174.438 239.627 174.483 239.711 174.551C239.796 174.619 239.861 174.707 239.901 174.807C239.942 174.908 239.955 175.017 239.941 175.124C239.927 175.232 239.885 175.333 239.82 175.42L229 190.14C228.93 190.235 228.835 190.308 228.725 190.35C228.615 190.393 228.495 190.403 228.38 190.38L221.7 189.13C221.595 189.113 221.496 189.07 221.412 189.005C221.328 188.939 221.261 188.854 221.22 188.756C221.178 188.658 221.161 188.551 221.172 188.445C221.182 188.339 221.22 188.238 221.28 188.15Z" fill="#263238"/>
<path d="M220.52 187.73L231.12 173.03C231.189 172.933 231.284 172.859 231.393 172.814C231.503 172.77 231.624 172.758 231.74 172.78L238.66 173.99C238.767 174.008 238.867 174.053 238.951 174.121C239.036 174.189 239.101 174.277 239.141 174.377C239.182 174.478 239.195 174.587 239.181 174.694C239.167 174.802 239.125 174.903 239.06 174.99L228.22 189.73C228.149 189.824 228.054 189.896 227.944 189.938C227.835 189.981 227.715 189.992 227.6 189.97L220.92 188.72C220.815 188.701 220.716 188.656 220.633 188.589C220.55 188.522 220.486 188.435 220.446 188.336C220.406 188.237 220.392 188.129 220.405 188.023C220.418 187.917 220.457 187.816 220.52 187.73Z" fill="#263238"/>
<path d="M231.55 173.52L238.18 174.7L227.59 188.94L221.16 187.76L231.55 173.52Z" fill="white"/>
<path d="M259.65 117.75C259.652 112.579 258.164 107.516 255.363 103.169C252.562 98.8217 248.567 95.374 243.857 93.2387C239.147 91.1035 233.921 90.3711 228.806 91.1294C223.69 91.8876 218.902 94.1044 215.014 97.5141C211.126 100.924 208.303 105.382 206.883 110.355C205.464 115.328 205.508 120.604 207.01 125.553C208.512 130.501 211.409 134.912 215.353 138.256C219.298 141.601 224.123 143.737 229.25 144.41L230.55 158.54L233.03 144.64C240.114 144.566 246.883 141.701 251.867 136.666C256.851 131.632 259.648 124.834 259.65 117.75Z" fill="#4189DD"/>
<path opacity="0.8" d="M259.65 117.75C259.652 112.579 258.164 107.516 255.363 103.169C252.562 98.8217 248.567 95.374 243.857 93.2387C239.147 91.1035 233.921 90.3711 228.806 91.1294C223.69 91.8876 218.902 94.1044 215.014 97.5141C211.126 100.924 208.303 105.382 206.883 110.355C205.464 115.328 205.508 120.604 207.01 125.553C208.512 130.501 211.409 134.912 215.353 138.256C219.298 141.601 224.123 143.737 229.25 144.41L230.55 158.54L233.03 144.64C240.114 144.566 246.883 141.701 251.867 136.666C256.851 131.632 259.648 124.834 259.65 117.75Z" fill="white"/>
<path d="M245.87 117.75L219.63 106.78L223.93 117.75L219.63 128.71L245.87 117.75Z" fill="#4189DD"/>
<path opacity="0.3" d="M223.93 117.75H245.87L219.63 128.71L223.93 117.75Z" fill="black"/>
</svg>
