<svg width="485" height="485" viewBox="0 0 485 485" fill="none" xmlns="http://www.w3.org/2000/svg">
<path d="M485 370.928H0V371.171H485V370.928Z" fill="#E0E0E0"/>
<path d="M366.33 381.2H332.962V381.443H366.33V381.2Z" fill="#E0E0E0"/>
<path d="M107.709 381.317H88.9296V381.559H107.709V381.317Z" fill="#E0E0E0"/>
<path d="M243.47 380.754H205.407V380.997H243.47V380.754Z" fill="#E0E0E0"/>
<path d="M204.437 377.301H187.423V377.543H204.437V377.301Z" fill="#E0E0E0"/>
<path d="M411.823 377.427H360.423V377.67H411.823V377.427Z" fill="#E0E0E0"/>
<path d="M229.89 327.666H42.5927C41.1254 327.664 39.7191 327.079 38.6825 326.04C37.6459 325.002 37.0637 323.595 37.0637 322.127V58.8403C37.0765 57.3814 37.6643 55.9865 38.6996 54.9586C39.7348 53.9306 41.1338 53.3526 42.5927 53.3501H229.89C231.359 53.3501 232.768 53.9336 233.806 54.9723C234.845 56.0111 235.429 57.4198 235.429 58.8888V322.127C235.429 323.596 234.845 325.005 233.806 326.044C232.768 327.083 231.359 327.666 229.89 327.666ZM42.5927 53.5441C41.1898 53.5467 39.8451 54.1058 38.854 55.0987C37.8629 56.0917 37.3062 57.4373 37.3062 58.8403V322.127C37.3062 323.53 37.8629 324.876 38.854 325.869C39.8451 326.862 41.1898 327.421 42.5927 327.424H229.89C231.294 327.421 232.639 326.862 233.632 325.87C234.625 324.877 235.184 323.531 235.186 322.127V58.8403C235.184 57.4364 234.625 56.0908 233.632 55.0982C232.639 54.1055 231.294 53.5467 229.89 53.5441H42.5927Z" fill="#E0E0E0"/>
<path d="M439.711 327.666H252.404C250.935 327.664 249.528 327.079 248.49 326.041C247.452 325.003 246.867 323.596 246.865 322.127V58.8403C246.88 57.3806 247.47 55.9857 248.507 54.958C249.544 53.9303 250.944 53.3526 252.404 53.3501H439.711C441.168 53.3551 442.564 53.9343 443.598 54.962C444.631 55.9897 445.217 57.3831 445.23 58.8403V322.127C445.23 323.593 444.649 324.999 443.615 326.037C442.58 327.075 441.176 327.661 439.711 327.666ZM252.404 53.5441C251 53.5467 249.654 54.1055 248.661 55.0982C247.669 56.0908 247.11 57.4364 247.107 58.8403V322.127C247.11 323.531 247.669 324.877 248.661 325.87C249.654 326.862 251 327.421 252.404 327.424H439.711C441.114 327.421 442.46 326.862 443.453 325.87C444.445 324.877 445.004 323.531 445.007 322.127V58.8403C445.004 57.4364 444.445 56.0908 443.453 55.0982C442.46 54.1055 441.114 53.5467 439.711 53.5441H252.404Z" fill="#E0E0E0"/>
<path d="M426.131 249.513C414.2 231.345 425.093 211.819 423.279 191.604C421.465 171.39 402.259 166.986 405.897 149.894C410.106 130.029 398.883 110.968 386.167 110.968C373.45 110.968 362.237 129.98 366.447 149.865C370.084 166.986 350.927 171.399 349.064 191.575C347.202 211.751 358.143 231.345 346.203 249.484C334.262 267.623 337.405 291.708 344.127 303.649C345.915 306.817 348.07 309.764 350.548 312.428C355.104 317.318 360.618 321.218 366.747 323.885C372.876 326.552 379.488 327.928 386.172 327.928C392.855 327.928 399.468 326.552 405.596 323.885C411.725 321.218 417.239 317.318 421.795 312.428C424.267 309.761 426.418 306.815 428.207 303.649C434.938 291.737 438.071 267.72 426.131 249.513Z" fill="#E0E0E0"/>
<path d="M386.167 263.297C386.959 263.297 387.744 263.453 388.476 263.756C389.208 264.059 389.873 264.504 390.433 265.064C390.993 265.624 391.438 266.289 391.741 267.021C392.044 267.753 392.2 268.538 392.2 269.33V370.928H380.133V269.33C380.133 268.538 380.289 267.753 380.593 267.021C380.896 266.289 381.34 265.624 381.9 265.064C382.461 264.504 383.126 264.059 383.858 263.756C384.59 263.453 385.374 263.297 386.167 263.297Z" fill="#F0F0F0"/>
<path d="M310.313 370.928H293.91V269.34C293.915 267.163 294.782 265.076 296.322 263.536C297.862 261.996 299.949 261.129 302.126 261.124C304.303 261.129 306.39 261.996 307.93 263.536C309.47 265.076 310.337 267.163 310.342 269.34L310.313 370.928Z" fill="#E0E0E0"/>
<path d="M302.097 343.526C330.045 343.526 352.702 320.869 352.702 292.921C352.702 264.973 330.045 242.316 302.097 242.316C274.149 242.316 251.492 264.973 251.492 292.921C251.492 320.869 274.149 343.526 302.097 343.526Z" fill="#F0F0F0"/>
<path d="M361.561 277.736C364.217 267.046 357.704 256.228 347.014 253.573C336.325 250.918 325.507 257.431 322.851 268.12C320.196 278.81 326.709 289.628 337.399 292.283C348.088 294.938 358.906 288.425 361.561 277.736Z" fill="#F0F0F0"/>
<path d="M272.814 263.015C273.862 256.58 269.495 250.514 263.06 249.466C256.625 248.418 250.559 252.785 249.511 259.22C248.463 265.655 252.83 271.721 259.265 272.769C265.7 273.817 271.766 269.45 272.814 263.015Z" fill="#F0F0F0"/>
<path d="M274.006 263.297C278.581 263.297 282.289 259.588 282.289 255.013C282.289 250.438 278.581 246.729 274.006 246.729C269.431 246.729 265.722 250.438 265.722 255.013C265.722 259.588 269.431 263.297 274.006 263.297Z" fill="#F0F0F0"/>
<path d="M197.88 310.293C190.011 311.465 182.491 314.335 175.842 318.703C175.783 311.021 174.377 303.736 170.768 297.848C165.278 303.193 160.826 310.119 157.188 317.568C155.86 303.61 152.183 290.03 144.045 281.426C131.852 289.099 125.566 301.884 122.579 315.425C117.643 306.294 110.479 298.56 101.753 292.94C94.2937 300.797 91.9075 311.661 92.1112 322.797C83.6334 312.922 74.2244 305.22 65.0482 304.318C62.7881 319.926 67.5993 334.65 73.72 346.29C77.6937 353.758 83.6302 360 90.8897 364.344C98.1492 368.687 106.456 370.967 114.916 370.938H154.773C171.758 370.938 187.685 361.878 195.649 346.872C200.683 337.366 203.089 325.134 197.88 310.293Z" fill="#E0E0E0"/>
<path d="M186.492 108.776C191.41 94.3519 187.462 84.0796 175.463 84.0796C167.917 84.0796 158.556 88.1245 149.438 94.7011C148.41 90.9472 145.51 88.7065 140.844 88.7065C132.628 88.7065 121.308 95.6517 112.433 105.449C109.934 103.075 106.626 101.74 103.179 101.714C95.3122 101.268 85.7965 105.264 77.5224 111.754C77.1078 111.173 76.5604 110.701 75.9259 110.375C75.2915 110.049 74.5883 109.88 73.8752 109.882C69.3453 109.629 63.2052 113.665 60.1691 118.883C59.9848 119.203 59.8199 119.523 59.6453 119.853H188.878C189.266 115.294 188.461 111.492 186.492 108.776Z" fill="#F0F0F0"/>
<path d="M186.89 196.357C189.296 189.315 187.385 184.3 181.506 184.3C177.811 184.3 173.242 186.24 168.79 189.49C168.55 188.585 167.995 187.794 167.226 187.261C166.456 186.728 165.521 186.486 164.59 186.58C160.583 186.58 155.054 189.975 150.709 194.767C149.491 193.603 147.873 192.95 146.189 192.943C142.309 192.72 137.701 194.67 133.656 197.842C133.46 197.561 133.201 197.331 132.899 197.169C132.598 197.007 132.262 196.918 131.92 196.91C129.708 196.784 126.711 198.753 125.227 201.304L124.965 201.77H188.093C188.357 199.88 187.929 197.958 186.89 196.357Z" fill="#F0F0F0"/>
<path d="M332.487 143.065C331.989 142.995 331.487 142.96 330.983 142.959C331.449 135.926 328.762 131.425 323.01 131.425C318.868 131.425 313.776 133.773 308.596 137.74C310.08 124.083 305.327 115.207 294.56 115.207C285.888 115.207 274.898 121.027 264.044 130.397C263.074 125.043 259.892 121.822 254.518 121.822C245.08 121.822 231.665 131.755 220.908 145.762C219.682 144.147 218.11 142.827 216.307 141.899C214.505 140.97 212.517 140.458 210.49 140.398C201.508 139.767 190.343 145.471 180.42 154.764C180.059 153.98 179.484 153.314 178.762 152.842C178.04 152.37 177.199 152.112 176.336 152.096C171.418 151.747 164.696 156.878 160.71 163.736H340.393C344.612 153.338 341.256 144.239 332.487 143.065Z" fill="#F0F0F0"/>
<path d="M242.5 414.733C346.37 414.733 430.573 409.817 430.573 403.753C430.573 397.689 346.37 392.772 242.5 392.772C138.63 392.772 54.4266 397.689 54.4266 403.753C54.4266 409.817 138.63 414.733 242.5 414.733Z" fill="#F5F5F5"/>
<path d="M47.394 146.043L268.525 177.878L298.197 207.822L47.394 146.043Z" fill="#4189DD"/>
<path opacity="0.6" d="M47.394 146.043L268.525 177.878L298.197 207.822L47.394 146.043Z" fill="white"/>
<path d="M47.394 146.043L268.525 177.878L258.262 221.179L47.394 146.043Z" fill="#4189DD"/>
<path opacity="0.2" d="M47.394 146.043L268.525 177.878L258.262 221.179L47.394 146.043Z" fill="black"/>
<path d="M253.723 95.9133L266.556 156.053C266.89 157.624 266.587 159.262 265.714 160.61C264.841 161.957 263.47 162.904 261.9 163.241L147.362 187.685C145.792 188.016 144.155 187.712 142.808 186.84C141.461 185.967 140.514 184.597 140.175 183.029L127.332 122.889C127.001 121.317 127.306 119.679 128.181 118.332C129.055 116.985 130.427 116.039 131.998 115.701L246.535 91.2573C248.107 90.9264 249.745 91.2315 251.092 92.1059C252.439 92.9804 253.385 94.3528 253.723 95.923V95.9133Z" fill="#4189DD"/>
<path opacity="0.4" d="M253.723 95.9133L266.556 156.053C266.89 157.624 266.587 159.262 265.714 160.61C264.841 161.957 263.47 162.904 261.9 163.241L147.362 187.685C145.792 188.016 144.155 187.712 142.808 186.84C141.461 185.967 140.514 184.597 140.175 183.029L127.332 122.889C127.001 121.317 127.306 119.679 128.181 118.332C129.055 116.985 130.427 116.039 131.998 115.701L246.535 91.2573C248.107 90.9264 249.745 91.2315 251.092 92.1059C252.439 92.9804 253.385 94.3528 253.723 95.923V95.9133Z" fill="black"/>
<path d="M250.9 91.9751L212.634 138.952C209.085 143.308 204.155 146.321 198.661 147.494C193.166 148.667 187.436 147.929 182.418 145.403L128.302 118.146C129.177 116.888 130.499 116.011 131.997 115.692L246.535 91.2476C248.03 90.9295 249.589 91.1895 250.9 91.9751Z" fill="#4189DD"/>
<path d="M47.394 146.043L229.783 189.392L258.262 221.179L47.394 146.043Z" fill="#4189DD"/>
<path opacity="0.6" d="M47.394 146.043L229.783 189.392L258.262 221.179L47.394 146.043Z" fill="white"/>
<path d="M113.925 187.826L113.435 188.663L133.732 200.552L134.222 199.715L113.925 187.826Z" fill="#4189DD"/>
<path d="M143.183 204.956L142.693 205.793L149.991 210.069L150.482 209.232L143.183 204.956Z" fill="#4189DD"/>
<path d="M47.394 146.043L229.783 189.392L194.33 232.121L47.394 146.043Z" fill="#4189DD"/>
<path d="M291.349 247.602C291.103 247.602 290.86 247.556 290.631 247.466L260.93 235.71C260.455 235.518 260.074 235.147 259.872 234.676C259.67 234.205 259.662 233.674 259.85 233.197C260.039 232.721 260.408 232.338 260.877 232.133C261.346 231.928 261.878 231.916 262.356 232.101L292.067 243.858C292.487 244.024 292.836 244.331 293.054 244.728C293.272 245.124 293.344 245.583 293.259 246.027C293.174 246.471 292.937 246.871 292.588 247.159C292.239 247.446 291.801 247.603 291.349 247.602Z" fill="#4189DD"/>
<path opacity="0.3" d="M291.349 247.602C291.103 247.602 290.86 247.556 290.631 247.466L260.93 235.71C260.455 235.518 260.074 235.147 259.872 234.676C259.67 234.205 259.662 233.674 259.85 233.197C260.039 232.721 260.408 232.338 260.877 232.133C261.346 231.928 261.878 231.916 262.356 232.101L292.067 243.858C292.487 244.024 292.836 244.331 293.054 244.728C293.272 245.124 293.344 245.583 293.259 246.027C293.174 246.471 292.937 246.871 292.588 247.159C292.239 247.446 291.801 247.603 291.349 247.602Z" fill="black"/>
<path d="M289.593 230.569C289.35 230.567 289.109 230.518 288.885 230.423L272.929 224.07C272.69 223.977 272.472 223.839 272.288 223.662C272.103 223.485 271.955 223.273 271.852 223.038C271.75 222.804 271.695 222.552 271.69 222.296C271.686 222.04 271.732 221.786 271.826 221.548C271.92 221.31 272.06 221.093 272.238 220.909C272.416 220.726 272.629 220.579 272.864 220.478C273.099 220.377 273.352 220.324 273.608 220.321C273.864 220.318 274.117 220.366 274.355 220.461L290.311 226.786C290.789 226.974 291.173 227.344 291.379 227.815C291.584 228.286 291.595 228.819 291.407 229.298C291.271 229.67 291.024 229.991 290.699 230.218C290.375 230.445 289.989 230.567 289.593 230.569Z" fill="#4189DD"/>
<path opacity="0.5" d="M289.593 230.569C289.35 230.567 289.109 230.518 288.885 230.423L272.929 224.07C272.69 223.977 272.472 223.839 272.288 223.662C272.103 223.485 271.955 223.273 271.852 223.038C271.75 222.804 271.695 222.552 271.69 222.296C271.686 222.04 271.732 221.786 271.826 221.548C271.92 221.31 272.06 221.093 272.238 220.909C272.416 220.726 272.629 220.579 272.864 220.478C273.099 220.377 273.352 220.324 273.608 220.321C273.864 220.318 274.117 220.366 274.355 220.461L290.311 226.786C290.789 226.974 291.173 227.344 291.379 227.815C291.584 228.286 291.595 228.819 291.407 229.298C291.271 229.67 291.024 229.991 290.699 230.218C290.375 230.445 289.989 230.567 289.593 230.569Z" fill="white"/>
<path d="M256.235 247.35C255.993 247.347 255.753 247.301 255.527 247.214L226.553 235.71C226.314 235.617 226.097 235.479 225.912 235.302C225.727 235.125 225.579 234.913 225.477 234.678C225.374 234.444 225.319 234.192 225.314 233.936C225.31 233.68 225.356 233.426 225.45 233.188C225.544 232.95 225.684 232.733 225.862 232.549C226.04 232.366 226.253 232.219 226.488 232.118C226.723 232.017 226.976 231.964 227.232 231.961C227.488 231.958 227.742 232.006 227.979 232.101L256.953 243.567C257.373 243.733 257.722 244.041 257.94 244.437C258.158 244.833 258.23 245.292 258.145 245.736C258.06 246.18 257.823 246.58 257.474 246.868C257.125 247.155 256.687 247.312 256.235 247.311V247.35Z" fill="#4189DD"/>
<path opacity="0.3" d="M256.235 247.35C255.993 247.347 255.753 247.301 255.527 247.214L226.553 235.71C226.314 235.617 226.097 235.479 225.912 235.302C225.727 235.125 225.579 234.913 225.477 234.678C225.374 234.444 225.319 234.192 225.314 233.936C225.31 233.68 225.356 233.426 225.45 233.188C225.544 232.95 225.684 232.733 225.862 232.549C226.04 232.366 226.253 232.219 226.488 232.118C226.723 232.017 226.976 231.964 227.232 231.961C227.488 231.958 227.742 232.006 227.979 232.101L256.953 243.567C257.373 243.733 257.722 244.041 257.94 244.437C258.158 244.833 258.23 245.292 258.145 245.736C258.06 246.18 257.823 246.58 257.474 246.868C257.125 247.155 256.687 247.312 256.235 247.311V247.35Z" fill="black"/>
<path d="M361.131 159.875C363.701 164.89 366.059 169.915 368.299 175.056C370.54 180.197 372.625 185.406 374.449 190.867L375.109 192.933C375.225 193.302 375.39 193.903 375.487 194.33C375.584 194.757 375.671 195.242 375.72 195.649C375.942 197.214 376.055 198.792 376.059 200.373C376.074 203.288 375.938 206.202 375.652 209.103C375.11 214.719 374.229 220.297 373.013 225.806L367.688 225.215C367.62 219.754 367.572 214.234 367.378 208.851C367.29 206.174 367.135 203.487 366.864 200.965C366.741 199.78 366.546 198.605 366.282 197.444C366.233 197.172 366.156 196.968 366.097 196.745C366.039 196.522 365.981 196.444 365.884 196.153L365.147 194.32C363.119 189.412 360.84 184.465 358.512 179.537L351.47 164.755L361.131 159.875Z" fill="#E4897B"/>
<path d="M367.766 223.508L365.283 228.154L373.217 230.366C373.217 230.366 374.73 226.631 372.926 223.682L367.766 223.508Z" fill="#E4897B"/>
<path d="M362.246 234.847L369.541 235.429L373.217 230.365L365.282 228.154L362.246 234.847Z" fill="#E4897B"/>
<path d="M327.734 126.352C327.627 126.925 327.229 127.322 326.861 127.245C326.492 127.167 326.289 126.653 326.405 126.09C326.521 125.528 326.909 125.12 327.278 125.198C327.647 125.276 327.86 125.79 327.734 126.352Z" fill="#263238"/>
<path d="M327.288 127.322C326.263 128.909 325.026 130.348 323.611 131.6C323.942 131.951 324.344 132.227 324.791 132.408C325.238 132.589 325.719 132.67 326.201 132.648L327.288 127.322Z" fill="#DE5753"/>
<path d="M330.43 123.646C330.339 123.644 330.252 123.606 330.188 123.539C329.909 123.221 329.559 122.972 329.167 122.814C328.774 122.655 328.35 122.592 327.928 122.628C327.847 122.628 327.769 122.601 327.708 122.549C327.646 122.498 327.604 122.426 327.59 122.347C327.576 122.268 327.591 122.186 327.631 122.117C327.672 122.048 327.736 121.995 327.811 121.968C328.351 121.9 328.899 121.966 329.406 122.16C329.914 122.355 330.366 122.672 330.721 123.084C330.784 123.147 330.819 123.232 330.819 123.321C330.819 123.41 330.784 123.495 330.721 123.559C330.683 123.594 330.636 123.621 330.586 123.636C330.536 123.651 330.482 123.654 330.43 123.646Z" fill="#263238"/>
<path d="M343.778 134.277C342.759 139.496 341.741 149.041 345.388 152.523C345.388 152.523 343.962 157.81 334.272 157.81C323.602 157.81 329.189 152.523 329.189 152.523C335.009 151.136 334.844 146.819 333.835 142.775L343.778 134.277Z" fill="#E4897B"/>
<path d="M346.852 155.811C347.619 153.26 348.463 150.34 346.717 149.419C344.777 148.449 334.233 147.382 330.595 149.273C326.958 151.165 327.996 156.354 327.996 156.354L346.852 155.811Z" fill="#263238"/>
<path d="M369.221 397.7C368.919 397.74 368.613 397.72 368.32 397.64C368.027 397.56 367.753 397.422 367.513 397.234C367.429 397.117 367.384 396.976 367.384 396.832C367.384 396.687 367.429 396.546 367.513 396.429C367.569 396.329 367.645 396.241 367.737 396.173C367.829 396.104 367.935 396.056 368.047 396.032C369.095 395.799 371.054 397.137 371.141 397.196C371.166 397.217 371.186 397.244 371.198 397.274C371.21 397.305 371.214 397.338 371.209 397.37C371.204 397.402 371.189 397.431 371.166 397.453C371.144 397.476 371.115 397.491 371.083 397.496C370.471 397.628 369.847 397.697 369.221 397.7ZM368.328 396.342H368.125C368.059 396.356 367.997 396.383 367.943 396.424C367.89 396.464 367.846 396.516 367.814 396.575C367.659 396.846 367.756 396.963 367.814 397.002C368.115 397.409 369.57 397.409 370.637 397.234C369.942 396.775 369.153 396.477 368.328 396.361V396.342Z" fill="#4189DD"/>
<path d="M371.044 397.525H370.967C370.23 397.118 368.804 395.585 368.949 394.771C368.974 394.645 369.042 394.531 369.141 394.45C369.24 394.369 369.364 394.324 369.492 394.324C369.62 394.311 369.749 394.322 369.873 394.359C369.996 394.396 370.111 394.456 370.21 394.538C371.035 395.217 371.18 397.273 371.18 397.361C371.184 397.391 371.179 397.422 371.165 397.45C371.151 397.478 371.129 397.501 371.103 397.516C371.084 397.523 371.064 397.527 371.044 397.525ZM369.609 394.615H369.57C369.347 394.615 369.327 394.751 369.318 394.79C369.23 395.265 370.142 396.439 370.87 396.992C370.821 396.182 370.53 395.405 370.036 394.761C369.97 394.71 369.895 394.672 369.815 394.651C369.736 394.629 369.652 394.624 369.57 394.635L369.609 394.615Z" fill="#4189DD"/>
<path d="M326.434 397.7C325.522 397.7 324.639 397.574 324.339 397.167C324.263 397.059 324.222 396.93 324.222 396.798C324.222 396.666 324.263 396.537 324.339 396.43C324.398 396.33 324.476 396.243 324.57 396.175C324.663 396.107 324.769 396.058 324.882 396.032C326.056 395.712 328.558 397.128 328.665 397.186C328.694 397.205 328.716 397.231 328.73 397.262C328.744 397.293 328.748 397.327 328.743 397.361C328.737 397.395 328.721 397.426 328.697 397.45C328.672 397.475 328.641 397.491 328.607 397.497C327.89 397.631 327.163 397.7 326.434 397.7ZM325.299 396.323C325.193 396.307 325.085 396.307 324.979 396.323C324.911 396.336 324.846 396.364 324.789 396.404C324.732 396.444 324.685 396.496 324.649 396.556C324.523 396.769 324.572 396.866 324.649 396.924C324.969 397.37 326.774 397.4 328.112 397.215C327.24 396.744 326.285 396.448 325.299 396.342V396.323Z" fill="#4189DD"/>
<path d="M328.587 397.525H328.52C327.656 397.147 325.959 395.585 326.085 394.8C326.085 394.606 326.25 394.373 326.715 394.324C326.889 394.298 327.065 394.311 327.233 394.361C327.401 394.411 327.555 394.498 327.685 394.615C328.597 395.353 328.781 397.273 328.791 397.361C328.795 397.39 328.791 397.42 328.779 397.448C328.767 397.475 328.748 397.498 328.723 397.516C328.703 397.527 328.68 397.534 328.656 397.535C328.633 397.537 328.61 397.534 328.587 397.525ZM326.851 394.615H326.744C326.444 394.615 326.424 394.771 326.415 394.809C326.337 395.294 327.501 396.507 328.355 397.031C328.271 396.216 327.931 395.449 327.385 394.839C327.246 394.719 327.073 394.647 326.89 394.635L326.851 394.615Z" fill="#4189DD"/>
<path d="M336.425 397.351H329.296L328.587 380.852H335.717L336.425 397.351Z" fill="#E4897B"/>
<path d="M379.212 397.351H372.082L368.503 380.852H375.623L379.212 397.351Z" fill="#E4897B"/>
<path d="M371.578 396.526H379.58C379.723 396.527 379.861 396.577 379.973 396.667C380.084 396.757 380.161 396.882 380.191 397.021L381.598 403.355C381.63 403.509 381.627 403.669 381.589 403.822C381.551 403.975 381.479 404.117 381.378 404.238C381.278 404.359 381.151 404.456 381.007 404.522C380.864 404.587 380.708 404.619 380.55 404.616C377.757 404.568 376.399 404.403 372.878 404.403C370.715 404.403 366.253 404.636 363.255 404.636C360.258 404.636 359.88 401.726 361.102 401.405C366.592 400.203 368.658 398.544 370.414 396.973C370.733 396.684 371.148 396.525 371.578 396.526Z" fill="#263238"/>
<path d="M329.344 396.526H337.104C337.247 396.527 337.385 396.577 337.496 396.667C337.607 396.757 337.684 396.882 337.715 397.021L339.122 403.355C339.155 403.508 339.154 403.666 339.118 403.819C339.082 403.971 339.011 404.113 338.912 404.234C338.814 404.355 338.689 404.453 338.547 404.519C338.405 404.585 338.25 404.618 338.093 404.616C335.29 404.568 331.236 404.403 327.705 404.403C323.582 404.403 320.013 404.636 315.172 404.636C312.262 404.636 311.438 401.726 312.66 401.405C318.238 400.183 322.787 400.057 327.608 397.089C328.121 396.74 328.724 396.545 329.344 396.526Z" fill="#263238"/>
<path d="M325.92 165.036C319.961 164.574 314.032 163.788 308.159 162.679C305.249 162.116 302.281 161.486 299.332 160.691C296.31 159.917 293.342 158.945 290.447 157.781C289.7 157.47 288.944 157.131 288.197 156.811C287.356 156.396 286.546 155.923 285.772 155.394C284.375 154.473 283.172 153.513 281.979 152.562C279.602 150.622 277.401 148.682 275.189 146.693C270.853 142.678 266.74 138.526 262.773 134.161L266.343 130.174L280.417 140.291C282.736 141.96 285.083 143.599 287.392 145.141C288.536 145.908 289.71 146.626 290.787 147.237C291.237 147.493 291.703 147.72 292.183 147.916C292.756 148.139 293.338 148.362 293.949 148.575C299.191 150.189 304.552 151.39 309.983 152.164C315.522 153.037 321.245 153.755 326.774 154.337L325.92 165.036Z" fill="#E4897B"/>
<path d="M358.143 154.133C364.827 155.666 371.578 175.192 371.578 175.192L357.833 185.057C357.833 185.057 353.953 175.958 350.209 168.004C346.29 159.672 351.315 152.571 358.143 154.133Z" fill="#4189DD"/>
<path opacity="0.4" d="M358.143 154.133C364.827 155.666 371.578 175.192 371.578 175.192L357.833 185.057C357.833 185.057 353.953 175.958 350.209 168.004C346.29 159.672 351.315 152.571 358.143 154.133Z" fill="black"/>
<path d="M354.293 164.803L351.567 170.905C354.39 176.996 356.97 183.03 357.658 184.64C357.561 177.433 356.194 168.489 354.293 164.803Z" fill="#4189DD"/>
<path opacity="0.6" d="M354.293 164.803L351.567 170.905C354.39 176.996 356.97 183.03 357.658 184.64C357.561 177.433 356.194 168.489 354.293 164.803Z" fill="black"/>
<path d="M318.228 154.502C318.228 154.502 310.642 163.067 317.801 216.097H355.912C356.184 210.277 352.508 181.701 358.143 154.133C353.931 153.322 349.67 152.784 345.388 152.523C339.993 152.212 334.584 152.212 329.189 152.523C325.489 152.896 321.824 153.557 318.228 154.502Z" fill="#4189DD"/>
<path opacity="0.4" d="M318.228 154.502C318.228 154.502 310.642 163.067 317.801 216.097H355.912C356.184 210.277 352.508 181.701 358.143 154.133C353.931 153.322 349.67 152.784 345.388 152.523C339.993 152.212 334.584 152.212 329.189 152.523C325.489 152.896 321.824 153.557 318.228 154.502Z" fill="black"/>
<path d="M315.405 164.803C315.153 166.811 314.959 169.188 314.833 171.991C318.597 170.861 322.173 169.181 325.445 167.005L315.405 164.803Z" fill="#4189DD"/>
<path opacity="0.6" d="M315.405 164.803C315.153 166.811 314.959 169.188 314.833 171.991C318.597 170.861 322.173 169.181 325.445 167.005L315.405 164.803Z" fill="black"/>
<path d="M331.74 165.87C326.638 170.39 307.16 169.934 307.16 169.934L306.52 151.078C313.097 152.015 319.732 152.494 326.376 152.513C337.23 152.29 337.308 160.884 331.74 165.87Z" fill="#4189DD"/>
<path opacity="0.4" d="M331.74 165.87C326.638 170.39 307.16 169.934 307.16 169.934L306.52 151.078C313.097 152.015 319.732 152.494 326.376 152.513C337.23 152.29 337.308 160.884 331.74 165.87Z" fill="black"/>
<path d="M266.527 130.213L261.677 124.5L256.449 130.32C256.449 130.32 259.669 135.732 264.781 134.878L266.527 130.213Z" fill="#E4897B"/>
<path d="M254.732 117.836L252.85 125.295L256.41 130.281L261.638 124.5L254.732 117.836Z" fill="#E4897B"/>
<path d="M328.587 380.861L328.956 389.358H336.086L335.717 380.861H328.587Z" fill="#CE6F64"/>
<path d="M375.632 380.861H368.503L370.346 389.358H377.475L375.632 380.861Z" fill="#CE6F64"/>
<path d="M332.875 119.31C326.483 116.4 324.465 103.47 342.856 106.7C342.856 106.7 340.082 109.765 345.708 111.705C351.334 113.645 346.63 125.625 332.875 119.31Z" fill="#263238"/>
<path d="M346.765 129.01C344.932 135.8 344.214 139.932 339.975 142.774C333.631 147.042 325.745 142.144 325.493 134.898C325.27 128.389 328.306 118.311 335.63 116.934C337.246 116.617 338.917 116.719 340.483 117.231C342.048 117.743 343.456 118.648 344.573 119.859C345.69 121.07 346.478 122.547 346.861 124.149C347.245 125.751 347.212 127.425 346.765 129.01Z" fill="#E4897B"/>
<path d="M342.604 110.095C346.959 112.52 352.857 113.975 352.304 117.428C351.577 121.648 355.864 119.009 354.865 125.285C354.215 129.388 346.649 141.824 341.285 141.222C333.273 140.252 334.291 128.069 334.262 121.648C334.243 117.855 334.068 105.313 342.604 110.095Z" fill="#263238"/>
<path d="M333.302 115.537C331.362 115.993 328.791 127.177 336.309 128.205C344.951 129.379 333.302 115.537 333.302 115.537Z" fill="#263238"/>
<path d="M333.496 119.504C331.119 119.718 325.736 116.856 326.395 112.549C326.395 112.52 329.8 117.584 333.496 119.504Z" fill="#263238"/>
<path d="M337.026 129.097C336.297 130.697 335.059 132.01 333.505 132.832C331.459 133.899 330.304 132.347 330.77 130.29C331.187 128.447 332.758 125.664 334.863 125.44C336.968 125.217 337.87 127.157 337.026 129.097Z" fill="#E4897B"/>
<path d="M347.696 121.25C349.146 120.621 350.417 119.642 351.395 118.402C352.374 117.161 353.029 115.696 353.303 114.14C353.303 114.14 356.504 123.035 347.696 121.25Z" fill="#263238"/>
<path d="M355.786 121.105C355.111 120.651 354.335 120.372 353.525 120.293C352.716 120.213 351.9 120.336 351.15 120.649C351.15 120.649 354.137 116.778 355.786 121.105Z" fill="#263238"/>
<path d="M331.323 216.097C331.323 216.097 339.413 270.553 343.846 290.952C348.696 313.262 367.029 387.719 367.029 387.719H380.075C380.075 387.719 367.999 315.095 365.224 292.94C362.217 268.933 355.912 216.058 355.912 216.058L331.323 216.097Z" fill="#4189DD"/>
<path opacity="0.5" d="M331.323 216.097C331.323 216.097 339.413 270.553 343.846 290.952C348.696 313.262 367.029 387.719 367.029 387.719H380.075C380.075 387.719 367.999 315.095 365.224 292.94C362.217 268.933 355.912 216.058 355.912 216.058L331.323 216.097Z" fill="white"/>
<path d="M364.943 382.908C364.885 382.908 366.291 387.923 366.291 387.923H380.977L380.706 383.451L364.943 382.908Z" fill="#4189DD"/>
<path opacity="0.1" d="M364.943 382.908C364.885 382.908 366.291 387.923 366.291 387.923H380.977L380.706 383.451L364.943 382.908Z" fill="black"/>
<path d="M336.435 235.497C345.786 237.33 344.796 272.202 343.671 290.137C340.974 277.459 337.026 253.064 334.33 235.749C334.982 235.428 335.725 235.339 336.435 235.497Z" fill="#4189DD"/>
<path opacity="0.4" d="M336.435 235.497C345.786 237.33 344.796 272.202 343.671 290.137C340.974 277.459 337.026 253.064 334.33 235.749C334.982 235.428 335.725 235.339 336.435 235.497Z" fill="white"/>
<path d="M317.801 216.097C317.801 216.097 316.831 269.369 317.597 291.107C318.402 313.708 326.327 387.719 326.327 387.719H338.394C338.394 387.719 338.84 315.027 339.364 292.833C339.956 268.632 342.876 216.097 342.876 216.097H317.801Z" fill="#4189DD"/>
<path opacity="0.5" d="M317.801 216.097C317.801 216.097 316.831 269.369 317.597 291.107C318.402 313.708 326.327 387.719 326.327 387.719H338.394C338.394 387.719 338.84 315.027 339.364 292.833C339.956 268.632 342.876 216.097 342.876 216.097H317.801Z" fill="white"/>
<path d="M328.83 379.047C328.801 379.047 328.772 379.036 328.751 379.016C328.729 378.997 328.716 378.97 328.714 378.94C326.58 358.454 321.565 308.887 320.954 291.107C320.304 272.958 320.895 232.238 321.089 220.19C321.089 220.159 321.102 220.13 321.123 220.108C321.145 220.086 321.175 220.074 321.206 220.074C321.238 220.074 321.268 220.086 321.292 220.107C321.315 220.129 321.329 220.158 321.332 220.19C321.138 232.238 320.546 272.958 321.196 291.097C321.827 308.877 326.841 358.425 328.956 378.911C328.956 378.944 328.945 378.976 328.923 379.001C328.902 379.026 328.872 379.042 328.84 379.047H328.83Z" fill="#4189DD"/>
<path opacity="0.4" d="M328.83 379.047C328.801 379.047 328.772 379.036 328.751 379.016C328.729 378.997 328.716 378.97 328.714 378.94C326.58 358.454 321.565 308.887 320.954 291.107C320.304 272.958 320.895 232.238 321.089 220.19C321.089 220.159 321.102 220.13 321.123 220.108C321.145 220.086 321.175 220.074 321.206 220.074C321.238 220.074 321.268 220.086 321.292 220.107C321.315 220.129 321.329 220.158 321.332 220.19C321.138 232.238 320.546 272.958 321.196 291.097C321.827 308.877 326.841 358.425 328.956 378.911C328.956 378.944 328.945 378.976 328.923 379.001C328.902 379.026 328.872 379.042 328.84 379.047H328.83Z" fill="white"/>
<path d="M323.98 382.908C323.931 382.908 324.669 387.923 324.669 387.923H339.345L339.742 383.451L323.98 382.908Z" fill="#4189DD"/>
<path opacity="0.1" d="M323.98 382.908C323.931 382.908 324.669 387.923 324.669 387.923H339.345L339.742 383.451L323.98 382.908Z" fill="black"/>
</svg>
